<svg width="161" height="160" xmlns="http://www.w3.org/2000/svg"><defs><linearGradient x1="22.517%" y1="8.011%" x2="96.94%" y2="96.367%" id="a"><stop stop-color="#66C7FF" offset="0%"/><stop stop-color="#3473E7" offset="100%"/></linearGradient></defs><path d="M801 245v160h-82.137c-14.19-.362-27.334-4.158-39.432-11.39-12.097-7.232-21.694-16.904-28.789-29.017C643.547 352.3 640 339.102 640 325c0-14.463 3.593-27.842 10.779-40.136 7.186-12.293 16.964-22.056 29.335-29.288C692.484 248.526 705.946 245 720.5 245c8.914 0 17.51 1.356 25.787 4.068 8.278 2.712 15.782 6.599 22.513 11.66V245H801zm-32.2 80c0-6.328-1.228-12.43-3.684-18.305-2.456-5.876-5.958-11.074-10.506-15.593-4.548-4.52-9.778-8-15.69-10.441-5.913-2.44-12.053-3.661-18.42-3.661-12.735 0-24.104 4.7-34.11 14.102-4.548 4.52-8.005 9.717-10.37 15.593A48.582 48.582 0 0 0 672.473 325c0 12.836 4.639 24.136 13.917 33.898 9.824 9.22 21.194 13.83 34.11 13.83h48.3V325z" transform="translate(-640 -245)" fill="url(#a)" fill-rule="evenodd"/></svg>