<svg width="400" height="454.804" xmlns="http://www.w3.org/2000/svg"><g fill-rule="evenodd"><path d="M6.481 276.976c.488.5.939.909 1.002.909.062 0-.286-.409-.775-.909-.488-.501-.939-.91-1.002-.91-.062 0 .286.409.775.91"/><path d="M162.93 227.175c0 16.571.027 23.351.06 15.065s.033-21.845 0-30.131c-.033-8.286-.06-1.506-.06 15.066" fill="#0e0e0e"/><path d="M314.611.239c-.501.103-1.319.253-1.82.334-.5.082-1.012.227-1.137.324s-.739.367-1.364.601c-1.365.509-4.335 2.043-5.09 2.629-.299.232-.682.421-.853.421-.171 0-.311.08-.311.178 0 .097-.281.298-.625.447-.787.339-1.982 1.038-2.477 1.449-.208.172-.388.271-.4.218-.012-.052-.432.163-.932.478-.5.316-1.882 1.126-3.07 1.8a310.255 310.255 0 0 0-2.546 1.455c-.211.126-1.03.573-1.819.995-.788.421-1.587.892-1.775 1.047-.187.154-.904.573-1.592.931-.687.358-1.66.919-2.16 1.247-.5.328-1.472.894-2.16 1.258-.688.365-1.285.74-1.327.834-.041.093-.172.17-.289.17-.118 0-1.031.486-2.031 1.08-.999.594-2.199 1.288-2.666 1.541a35.08 35.08 0 0 0-1.839 1.097c-.543.35-1.771 1.051-2.728 1.559-.958.508-1.894 1.043-2.082 1.188-.188.146-.904.557-1.592.914-.688.356-1.389.757-1.559.89-.369.288-1.001.651-2.079 1.195-.438.221-1.109.635-1.491.92-.382.285-1.15.729-1.705.986-1.011.469-1.418.697-2.488 1.395-.866.564-4.986 2.926-5.105 2.926-.057 0-.551.302-1.098.671-.854.576-4.671 2.72-6.247 3.508-.28.14-.511.332-.512.426 0 .094-.146.17-.323.17-.178 0-.357.077-.398.171-.042.094-.726.671-1.52 1.283-2.49 1.92-4.703 4.7-6.149 7.726a21.528 21.528 0 0 0-1.753 5.573 13.07 13.07 0 0 1-.273 1.251c-.08.266-.176 15.423-.213 33.684-.054 26.051-.129 33.219-.349 33.287-.154.047-.459.242-.678.433-.219.191-.398.264-.398.163 0-.102-.179-.033-.398.153-.218.185-.807.573-1.307.862-.5.29-1.882 1.09-3.07 1.78-3.339 1.938-3.704 2.144-4.434 2.505-.376.186-.836.461-1.024.612-.187.151-.904.568-1.591.925a30.45 30.45 0 0 0-2.161 1.247c-.5.328-1.472.894-2.16 1.258-.688.365-1.386.791-1.551.947-.166.157-.382.285-.482.285-.099 0-.913.435-1.807.966a95.945 95.945 0 0 1-2.474 1.427 35.49 35.49 0 0 0-1.838 1.097c-.543.35-1.771 1.052-2.728 1.559-.958.508-1.894 1.043-2.082 1.189-.188.145-.904.556-1.592.913-.688.356-1.389.757-1.559.89-.368.288-1.001.652-2.079 1.196-.438.22-1.109.634-1.491.919-.382.285-1.15.729-1.705.987-.556.257-1.215.593-1.464.745l-1.592.978c-2.225 1.369-4.352 2.597-4.495 2.597-.08 0-.604.309-1.163.687-.56.377-1.921 1.164-3.025 1.749-1.104.584-2.041 1.145-2.083 1.246-.041.101-.154.184-.25.184-.097 0-1.035.51-2.085 1.134-1.05.624-2.165 1.262-2.478 1.417-.313.155-.62.337-.682.405-.063.068-.37.248-.682.401-.868.425-2.002 1.098-2.385 1.416-.189.157-.344.206-.344.109 0-.098-.179-.02-.398.172-.334.292-2.419 1.527-7.319 4.334-.446.256-1.118.616-1.493.802-.375.185-.836.461-1.023.612-.188.151-.904.567-1.592.925a30.82 30.82 0 0 0-2.16 1.246c-.501.328-1.473.895-2.161 1.259-.688.365-1.284.739-1.326.833-.042.094-.172.171-.29.171-.117 0-1.033.486-2.035 1.08a241.936 241.936 0 0 1-2.821 1.649 176.28 176.28 0 0 0-2.809 1.654l-1.808 1.087-1.403-.859a100.552 100.552 0 0 0-2.406-1.428 201.797 201.797 0 0 1-2.826-1.648c-1.002-.594-1.918-1.08-2.035-1.08-.118 0-.248-.077-.29-.171-.042-.094-.639-.469-1.326-.833a32.996 32.996 0 0 1-2.161-1.259c-.5-.328-1.472-.889-2.16-1.246-.688-.358-1.404-.777-1.592-.932-.187-.154-.986-.626-1.775-1.047a74.86 74.86 0 0 1-1.819-.995c-.212-.125-1.358-.78-2.546-1.455-1.188-.674-2.569-1.489-3.07-1.81-.5-.321-.96-.589-1.023-.595-.063-.006-.267-.111-.455-.232-.858-.556-1.757-1.061-2.331-1.308-.344-.148-.625-.349-.625-.447 0-.098-.115-.177-.255-.177s-.677-.264-1.194-.586a103.206 103.206 0 0 0-5.146-3.002c-.813-.439-1.631-.925-1.819-1.08-.187-.155-.986-.626-1.775-1.047a99.155 99.155 0 0 1-1.825-.994c-3.51-2.039-5.266-3.057-6.081-3.525a272.278 272.278 0 0 1-2.813-1.648c-1.002-.594-1.926-1.08-2.054-1.08-.128 0-.233-.078-.233-.174 0-.095-.205-.274-.455-.398a882.123 882.123 0 0 1-5.257-2.614c-.449-.234-2.22-.755-2.739-.806a3.577 3.577 0 0 1-.769-.188c-.912-.35-4.63-.512-6.471-.281-1.316.164-1.396.178-2.842.491-.501.108-.978.202-1.061.207-.084.006-.229.087-.323.181-.093.094-.317.171-.496.171-.737 0-5.143 2.176-6.808 3.363-.401.285-1.169.723-1.706.973-.993.46-1.794.912-2 1.126-.062.065-.369.248-.682.408-.313.159-1.234.691-2.046 1.182a51.31 51.31 0 0 1-2.274 1.303c-.438.226-1.241.697-1.785 1.047-.543.35-1.771 1.052-2.728 1.56-.958.507-1.895 1.042-2.082 1.188-.188.146-.904.556-1.592.912-.688.356-1.404.771-1.592.921a3.386 3.386 0 0 1-.682.415c-.188.077-.815.425-1.394.773-2.51 1.508-4.81 2.793-4.998 2.793-.111 0-.203.103-.203.228s-.128.232-.284.237c-.156.006-1.103.518-2.103 1.139-1.001.621-2.178 1.309-2.615 1.53-.438.221-1.257.7-1.82 1.063-.563.364-1.893 1.123-2.956 1.687-1.063.564-1.967 1.108-2.009 1.209-.041.101-.154.184-.25.184-.097 0-1.035.511-2.085 1.134-1.05.624-2.165 1.262-2.478 1.417-.313.155-.62.338-.682.405-.063.068-.37.249-.682.402-.838.409-1.998 1.094-2.35 1.386-.169.14-.36.202-.425.138-.064-.065-.246.039-.404.229-.159.191-.373.347-.476.347-.104 0-.628.296-1.166.658-.538.362-1.797 1.092-2.797 1.622-1.001.53-1.973 1.081-2.161 1.225-.187.144-.801.504-1.364.8-.563.296-1.185.676-1.382.845-.198.169-.458.307-.578.307-.119 0-.572.303-1.005.673-.433.371-.875.678-.983.683-.396.018-4.466 4.051-4.466 4.425 0 .075-.366.658-.814 1.295-1.347 1.917-2.498 4.771-3.198 7.933-.287 1.298-.349 74.279-.064 75.856.133.741.386 1.777.561 2.302.175.526.363 1.203.418 1.506.055.302.211.742.348.977.136.235.453.888.703 1.451.993 2.23 2.242 3.906 4.578 6.14 1.928 1.844 1.771 1.722 3.949 3.053 1.001.612 1.981 1.25 2.179 1.418.198.168.413.252.479.186s.249.036.407.227c.159.19.376.346.483.346.107 0 .735.337 1.394.749.659.412 1.454.876 1.766 1.032.313.156.774.409 1.024.561 1.751 1.069 3.343 1.979 3.462 1.979.077 0 .302.14.499.311.198.171 1.178.744 2.179 1.274 1 .531 2.228 1.238 2.728 1.573.501.334 1.268.788 1.706 1.008.438.22 1.205.654 1.705.965.501.31 1.166.688 1.478.839.313.151.62.329.683.397.062.068.369.25.682.405.313.156 1.428.793 2.478 1.417 1.05.624 1.988 1.134 2.084 1.134.097 0 .21.083.251.184.042.102.979.662 2.083 1.247 1.104.584 2.465 1.371 3.024 1.748.56.378 1.065.687 1.122.687.058 0 1.05.549 2.206 1.219l3.011 1.745c.5.289 1.089.677 1.308.863.219.185.398.257.398.16s.154-.048.343.108c.464.385 1.677 1.091 2.442 1.42.344.149.626.35.626.447 0 .098.122.178.272.178.149 0 .635.239 1.08.53.933.613 4.263 2.557 7.062 4.124 2.678 1.5 3.34 1.878 4.775 2.728 2.417 1.432 4.777 2.592 6.077 2.988 1.638.498 1.48.447 1.882.605 2.226.878 9.268.611 11.825-.448.188-.077.392-.159.455-.18 1.322-.457 3.646-1.589 5.304-2.584 1.022-.614 2.422-1.397 3.11-1.74.688-.343 1.284-.713 1.326-.822.042-.109.155-.198.251-.198s1.034-.511 2.084-1.134c1.051-.624 2.166-1.262 2.478-1.417.313-.155.62-.338.683-.405.062-.068.369-.249.682-.402.867-.424 2.002-1.098 2.385-1.415.189-.157.344-.206.344-.109 0 .097.179.02.398-.172.333-.292 2.419-1.527 7.319-4.334a34.052 34.052 0 0 1 1.492-.802c.376-.185.836-.461 1.024-.612.187-.151.904-.567 1.592-.925.688-.358 1.66-.922 2.16-1.253.5-.332 1.465-.884 2.144-1.227.679-.343 1.377-.766 1.551-.94.174-.174.447-.316.607-.316.714 0 1.069-.796.585-1.314-.249-.268-.453-.541-.453-.608 0-.067-.997-1.557-2.217-3.313-1.219-1.755-2.319-3.367-2.444-3.583-.126-.216-.714-1.081-1.308-1.924-.594-.842-1.08-1.6-1.08-1.684 0-.084-.253-.484-.562-.889-.829-1.086-9.899-14.645-9.899-14.798 0-.071-.855-1.373-1.9-2.893-3.405-4.952-6.286-9.247-6.286-9.372 0-.067.435.168.966.522.532.355 1.53.937 2.217 1.295.688.358 1.405.777 1.592.932.188.154.987.625 1.775 1.047.789.421 1.608.869 1.82.994.211.126 1.357.781 2.545 1.455 1.188.675 2.57 1.489 3.07 1.811.5.321.961.589 1.023.595.063.006.268.11.455.232.64.414 1.705 1.025 2.274 1.304.313.153.62.333.682.401.063.067.37.25.683.405.312.155 1.427.793 2.478 1.417 1.05.624 1.996 1.134 2.103 1.134.107 0 .194.082.194.182 0 .1.486.416 1.08.701.594.285 1.883.996 2.864 1.58 1.975 1.176 2.835 1.672 7.085 4.085.375.213.733.439.796.502.217.217 1.029.67 2.034 1.136.556.258 1.323.702 1.706.987.382.285 1.052.696 1.49.913.438.217 1.103.592 1.478.833.376.242 1.194.719 1.82 1.062.625.343 1.31.729 1.523.859.212.13.928.53 1.591.889a78.55 78.55 0 0 1 2.752 1.592c.85.516 1.735 1.045 1.965 1.175.231.13.568.359.75.509.181.151.382.221.446.156.065-.064.247.039.405.23.158.19.376.346.483.346.107 0 .736.333 1.396.739a59.948 59.948 0 0 0 3.697 2.124c.625.335 1.546.881 2.047 1.212.5.332 1.472.898 2.16 1.259a58.885 58.885 0 0 1 2.615 1.484c1.621.984 1.644.997 4.548 2.638 1.251.707 2.53 1.453 2.844 1.657 1.006.656 1.46.919 2.273 1.317.437.214 1.347.736 2.022 1.161.675.424 1.442.87 1.706.991.62.284 1.372.722 1.762 1.027.17.133.871.533 1.559.89s1.404.768 1.592.913c.188.146 1.124.681 2.082 1.189.957.507 2.185 1.209 2.728 1.559.544.35 1.347.817 1.785 1.038.437.221 1.614.91 2.615 1.531 1 .621 1.947 1.133 2.103 1.139.157.005.284.1.284.211 0 .11.18.261.398.336.522.177 3.258 1.695 3.696 2.05.187.152.904.568 1.592.925.687.356 1.404.774 1.591.928.188.155.987.626 1.775 1.047.789.421 1.608.869 1.82.995.211.126 1.357.78 2.545 1.455 1.188.674 2.57 1.489 3.07 1.81.5.321.961.589 1.023.595.063.006.268.111.455.232.64.415 1.705 1.025 2.274 1.304.313.153.62.334.682.401.063.068.37.25.683.406.312.155 1.427.792 2.478 1.416 1.05.624 1.988 1.135 2.084 1.135.096 0 .209.082.251.184.042.101.979.662 2.083 1.246s2.465 1.371 3.024 1.749c.56.377 1.083.686 1.163.686.162 0 2.741 1.497 4.494 2.608.625.396 1.29.795 1.478.887a81.9 81.9 0 0 1 1.307.667l.967.5.019 32.405c.017 28.638.094 33.917.525 35.816.55 2.423.858 3.453 1.365 4.56.326.711.592 1.426.592 1.588 0 .162.081.329.18.371.098.041.522.638.941 1.326 1.46 2.397 4.308 5.299 6.585 6.708.202.126.807.509 1.345.853.538.344 1.062.626 1.166.626.103 0 .314.152.469.338.155.186.36.29.457.23.097-.06.302.044.457.23.154.186.367.339.471.339.105 0 .834.408 1.621.907.787.499 1.558.908 1.715.91.156.001.284.08.284.175 0 .185.232.32 1.956 1.141.599.285 1.401.752 1.784 1.037.382.285 1.052.695 1.49.913.438.217 1.103.592 1.478.833.376.241 1.194.719 1.82 1.062.625.342 1.308.729 1.517.859.21.129 1.266.719 2.348 1.311 1.082.592 2.426 1.385 2.985 1.762.56.378 1.066.687 1.125.687.2 0 6.12 3.463 6.521 3.815.219.192.398.269.398.172 0-.097.155-.048.344.108.383.318 1.518.992 2.385 1.416.313.153.62.334.682.402.063.067.37.25.683.405.312.155 1.438.807 2.501 1.449s2.949 1.721 4.191 2.397c1.242.676 2.705 1.531 3.252 1.9.547.369 1.041.671 1.098.671.119 0 4.239 2.362 5.104 2.926 1.07.697 1.478.926 2.488 1.394.556.258 1.323.702 1.706.987.382.285 1.052.695 1.49.913a17.92 17.92 0 0 1 1.478.836c1.46.943 6.936 3.373 6.936 3.077 0-.053.333.001.739.12 1.48.432 4.681.631 6.805.424 2.114-.207 2.421-.254 3.712-.567 1.885-.457 6.313-2.574 8.301-3.968.312-.22 1.08-.673 1.705-1.007a60.186 60.186 0 0 0 3.697-2.122c.66-.407 1.289-.739 1.396-.739.108 0 .325-.156.483-.347.158-.191.34-.294.405-.229.064.064.265-.006.447-.157.181-.15.518-.379.749-.509.231-.13 1.115-.659 1.965-1.175a79.478 79.478 0 0 1 2.752-1.592 54.504 54.504 0 0 0 1.592-.889c.212-.13.897-.516 1.523-.859.625-.342 1.444-.82 1.819-1.061.375-.242 1.04-.617 1.478-.834a11.696 11.696 0 0 0 1.491-.913c.382-.285 1.149-.729 1.705-.986 1.005-.466 1.817-.92 2.034-1.137.115-.115.462-.318 2.729-1.592a230.753 230.753 0 0 0 5.157-2.988c2.219-1.316 3.45-2.012 5.19-2.936.75-.399 1.518-.851 1.705-1.006.188-.155 1.007-.642 1.82-1.082a109.66 109.66 0 0 0 3.411-1.963c1.063-.639 2.188-1.287 2.501-1.44.313-.152 1.08-.593 1.706-.979a30.825 30.825 0 0 1 1.932-1.099 24.2 24.2 0 0 0 1.607-.899c2.272-1.41 3.67-2.208 3.863-2.208.119 0 .216-.081.216-.179 0-.098.332-.374.739-.612.406-.239.857-.543 1.003-.675.145-.132.699-.598 1.23-1.036 2.136-1.757 4.596-5.385 5.783-8.527 1.553-4.108 1.462-1.515 1.456-41.729-.005-37.21-.043-39.001-.87-40.818-.114-.25-.26-.66-.325-.91-.188-.725-.702-1.998-1.056-2.615-.18-.313-.333-.62-.342-.682-.034-.25-1.373-2.212-2.397-3.511-1.174-1.49-4.356-4.214-5.87-5.024-.516-.276-1.068-.604-1.225-.728-.158-.124-1.105-.66-2.106-1.191-1.001-.53-2.259-1.261-2.797-1.623-.538-.362-1.063-.658-1.166-.658-.104 0-.315-.152-.469-.338-.155-.187-.36-.29-.457-.23-.097.059-.302-.044-.457-.23-.155-.186-.369-.339-.476-.339-.108 0-.758-.36-1.445-.799-.688-.44-1.483-.902-1.767-1.027a10.437 10.437 0 0 1-1.199-.673 35.68 35.68 0 0 0-1.819-1.068 45.932 45.932 0 0 1-1.592-.907c-.25-.156-.608-.358-.796-.449-.87-.423-5.839-3.353-6.158-3.632-.198-.173-.414-.261-.48-.195-.065.066-.249-.036-.407-.227-.158-.19-.376-.346-.483-.346-.108 0-.837-.391-1.621-.868s-1.579-.941-1.766-1.032c-.53-.256-1.285-.709-1.625-.975-.169-.132-.871-.533-1.559-.889-.688-.357-1.404-.768-1.592-.914-.187-.145-1.124-.68-2.081-1.188-.958-.508-2.186-1.209-2.729-1.559a34.4 34.4 0 0 0-1.839-1.097c-.467-.253-1.667-.947-2.666-1.541-.999-.594-1.913-1.08-2.031-1.08-.117 0-.247-.077-.289-.171-.042-.093-.639-.468-1.327-.833a32.71 32.71 0 0 1-2.16-1.258c-.5-.328-1.472-.889-2.16-1.247-.688-.358-1.405-.782-1.593-.943-.187-.16-.597-.399-.909-.531-.313-.132-.978-.496-1.478-.81-.5-.314-1.05-.639-1.223-.722-.172-.083-1.167-.642-2.211-1.243-6.642-3.822-13.794-4.8-19.021-2.601-.468.197-.929.365-1.023.373-.094.008-.818.314-1.609.68-.79.365-1.476.665-1.523.665-.048 0-.545.309-1.104.686-.56.378-1.903 1.171-2.985 1.763a96.524 96.524 0 0 0-2.348 1.311c-.21.129-.79.461-1.291.738-.5.276-1.318.757-1.819 1.069-.5.312-1.142.67-1.426.794-.285.124-1.052.565-1.706.979-.654.414-1.547.933-1.984 1.152-.438.219-1.308.715-1.933 1.102-.626.387-2.109 1.255-3.298 1.93-2.839 1.612-2.85 1.618-4.434 2.579a58.885 58.885 0 0 1-2.615 1.484c-.688.361-1.66.927-2.16 1.259a26.04 26.04 0 0 1-2.144 1.226c-.68.343-1.378.766-1.552.94-.174.174-.398.317-.497.317-.1 0-.913.435-1.807.966a99.368 99.368 0 0 1-2.475 1.428c-.467.253-1.294.746-1.837 1.096-.544.35-1.772 1.052-2.729 1.56-.957.507-1.902 1.063-2.099 1.234-.198.171-.423.311-.5.311-.119 0-1.711.909-3.462 1.978-.25.153-.711.405-1.023.561-.313.156-1.108.621-1.767 1.032-.659.412-1.286.749-1.394.749-.107 0-.324.156-.482.347-.159.19-.331.303-.384.25-.053-.053-.618.247-1.255.667-1.143.753-1.165.757-1.747.355a8.525 8.525 0 0 0-.93-.567 10.082 10.082 0 0 1-.796-.437c-.251-.152-1.427-.828-2.616-1.502-1.188-.675-2.569-1.49-3.069-1.811-.501-.321-.961-.589-1.024-.595-.062-.006-.267-.111-.455-.232a27.36 27.36 0 0 0-2.274-1.304c-.312-.153-.619-.333-.682-.401-.062-.068-.369-.25-.682-.405-.313-.156-1.428-.793-2.478-1.417-1.05-.624-1.988-1.134-2.084-1.134-.097 0-.21-.083-.251-.184-.042-.102-.979-.662-2.083-1.247-1.104-.584-2.465-1.371-3.025-1.748-.559-.378-1.083-.687-1.163-.687-.15 0-2.497-1.359-4.484-2.595-1.566-.975-1.912-1.169-3.066-1.715-.556-.264-1.324-.712-1.706-.997a12.214 12.214 0 0 0-1.491-.92c-1.078-.544-1.71-.907-2.079-1.195-.169-.133-.871-.534-1.559-.89-.688-.357-1.404-.768-1.592-.914-.187-.145-1.124-.68-2.081-1.188-.958-.508-2.186-1.209-2.729-1.559a35.913 35.913 0 0 0-1.837-1.097 94.022 94.022 0 0 1-2.475-1.427c-.894-.532-1.707-.966-1.807-.966-.1 0-.316-.128-.482-.285-.165-.156-.863-.582-1.551-.947a32.71 32.71 0 0 1-2.16-1.258c-.5-.328-1.472-.889-2.16-1.247-.688-.358-1.405-.774-1.592-.925-.188-.151-.648-.426-1.023-.612a33.416 33.416 0 0 1-1.493-.801c-4.807-2.754-6.98-4.038-7.281-4.3-.198-.173-.413-.26-.479-.195-.066.066-.249-.036-.407-.227-.159-.19-.376-.346-.483-.346-.108 0-.735-.337-1.394-.749-.659-.412-1.454-.873-1.766-1.026-.313-.152-1.428-.788-2.478-1.411-1.051-.624-1.989-1.135-2.085-1.135-.096 0-.209-.083-.251-.184-.042-.101-.945-.645-2.009-1.209-1.063-.564-2.393-1.319-2.956-1.679a34.503 34.503 0 0 0-1.933-1.14c-1.854-.992-3.194-1.783-3.581-2.113-.569-.486-.625-60.304-.057-60.304.187 0 .341-.102.341-.227s.087-.227.194-.227c.107 0 1.053-.511 2.103-1.135 1.051-.623 2.166-1.261 2.478-1.416.313-.156.62-.338.683-.406.062-.067.369-.248.682-.401a27.663 27.663 0 0 0 2.274-1.303c.187-.122.392-.226.455-.233.062-.006.523-.273 1.023-.595.5-.321 1.882-1.136 3.07-1.81a345.608 345.608 0 0 0 2.546-1.455c.211-.126 1.03-.573 1.819-.995.788-.421 1.587-.892 1.775-1.047.187-.154.904-.574 1.592-.931.687-.358 1.66-.919 2.16-1.247.5-.328 1.472-.894 2.16-1.259.688-.364 1.285-.739 1.327-.833.041-.094.172-.17.289-.17.118 0 1.031-.486 2.031-1.08a103.34 103.34 0 0 1 2.666-1.541 35.08 35.08 0 0 0 1.839-1.097c.543-.35 1.771-1.052 2.728-1.559.958-.508 1.895-1.043 2.082-1.189.188-.145.904-.556 1.592-.913.688-.356 1.389-.757 1.559-.89.369-.288 1.001-.652 2.079-1.196.438-.22 1.109-.634 1.491-.919.382-.285 1.15-.733 1.706-.997 1.153-.546 1.5-.74 3.066-1.715 1.987-1.237 4.334-2.595 4.484-2.595.08 0 .604-.309 1.163-.687.56-.377 1.921-1.164 3.025-1.749 1.104-.584 2.041-1.144 2.083-1.246.041-.101.154-.184.25-.184.097 0 1.035-.51 2.085-1.134 1.05-.624 2.165-1.261 2.478-1.417.313-.155.62-.337.682-.405.063-.068.37-.248.682-.401a27.36 27.36 0 0 0 2.274-1.304c.188-.122.393-.226.455-.232.063-.006.523-.274 1.023-.595.501-.321 1.882-1.136 3.07-1.811a293.068 293.068 0 0 0 2.546-1.455 82.243 82.243 0 0 1 1.819-.994c.789-.421 1.588-.895 1.775-1.052.188-.157.904-.582 1.592-.946.688-.363 1.66-.921 2.16-1.24a39.317 39.317 0 0 1 2.161-1.244c.688-.366 1.285-.741 1.326-.835.042-.094.172-.171.29-.171.117 0 1.031-.486 2.03-1.08.999-.594 2.199-1.287 2.667-1.541a34.394 34.394 0 0 0 1.838-1.097c.544-.349 1.772-1.051 2.729-1.559.957-.508 1.894-1.042 2.082-1.188.187-.146.904-.557 1.591-.913.688-.357 1.39-.757 1.56-.89.368-.288 1-.652 2.079-1.196a12.285 12.285 0 0 0 1.491-.919c.382-.285 1.184-.752 1.783-1.037 1.725-.821 1.956-.956 1.956-1.141 0-.095.128-.178.284-.183.157-.006 1.103-.518 2.104-1.139 1-.621 2.177-1.309 2.615-1.531a24.127 24.127 0 0 0 1.784-1.038c.544-.35 1.772-1.052 2.729-1.559.957-.508 1.894-1.043 2.082-1.189.187-.145.904-.556 1.591-.913.688-.356 1.39-.757 1.56-.89.368-.288 1-.652 2.079-1.196.438-.22 1.108-.634 1.49-.919.383-.285 1.15-.729 1.706-.986 1.022-.474 1.826-.925 2.034-1.142.063-.065.37-.249.682-.408.313-.159 1.234-.691 2.047-1.182a51.954 51.954 0 0 1 2.274-1.304 25.98 25.98 0 0 0 1.784-1.046c.544-.35 1.772-1.052 2.729-1.56.957-.508 1.894-1.047 2.082-1.199.955-.774 1.162-.537.372.427-.455.555-.827 1.061-.827 1.124 0 .105-1.192 1.875-3.476 5.164-.474.682-1.373 2.007-1.999 2.945-.625.938-1.517 2.251-1.981 2.917-.465.666-1.203 1.76-1.64 2.431-1.768 2.709-3.99 5.913-4.15 5.984a.327.327 0 0 0-.171.278c0 .177-1.289 2.19-1.594 2.489-.064.062-1.214 1.751-2.556 3.752-2.384 3.556-3.511 5.222-4.154 6.14-.306.438-1.158 1.697-3.612 5.344-.632.938-1.202 1.756-1.268 1.819-.066.062-.265.395-.442.739s-.407.625-.511.625c-.104 0-.189.105-.189.233s-.363.76-.806 1.404c-.924 1.344-.924 1.344 1.033 2.367.688.36 1.302.713 1.365.785.062.072.983.591 2.046 1.154 1.063.563 2.394 1.321 2.956 1.685.563.364 1.382.846 1.82 1.072a51.31 51.31 0 0 1 2.274 1.303c.813.491 1.734 1.023 2.046 1.182.313.16.62.343.682.408.209.217 1.012.668 2.035 1.142.556.257 1.323.701 1.705.986.382.285 1.053.696 1.491.913.437.217 1.103.593 1.478.834s1.194.719 1.819 1.061c.625.343 1.311.73 1.523.859.212.13.929.53 1.592.889.663.36 1.905 1.076 2.759 1.592 2.705 1.634 3.394 1.966 5.783 2.783 1.284.439 2.512.831 2.729.871 2.392.445 5.346.591 6.762.333.501-.091 1.217-.216 1.592-.278 2.543-.419 4.737-1.242 7.428-2.785a145.913 145.913 0 0 1 2.805-1.573 34.46 34.46 0 0 0 1.933-1.139c.563-.359 1.893-1.115 2.956-1.679 1.064-.564 1.967-1.108 2.009-1.209.042-.101.155-.184.251-.184s1.034-.511 2.085-1.134c1.05-.624 2.165-1.262 2.478-1.417.312-.155.619-.338.682-.405.062-.068.369-.249.682-.402.894-.437 2.006-1.101 2.42-1.444.208-.173.389-.272.401-.219.012.052.431-.163.931-.478.5-.316 1.882-1.125 3.07-1.8a310.255 310.255 0 0 0 2.546-1.455c.212-.126 1.03-.573 1.819-.995.788-.421 1.587-.892 1.775-1.047.187-.154.904-.572 1.592-.928.688-.356 1.404-.772 1.591-.924.438-.356 3.174-1.874 3.696-2.051.219-.074.398-.226.398-.336 0-.111.104-.201.232-.201s1.05-.486 2.05-1.08c.999-.594 2.199-1.288 2.666-1.541a34.4 34.4 0 0 0 1.839-1.097c.543-.35 1.771-1.051 2.729-1.559.957-.508 1.894-1.043 2.081-1.188.188-.146.904-.557 1.592-.914.688-.356 1.39-.757 1.559-.889.34-.266 1.095-.719 1.625-.975.187-.091.955-.535 1.705-.987a39.022 39.022 0 0 1 2.16-1.215c.97-.478 1.303-.682 3.121-1.915.784-.531 1.51-.966 1.614-.966.279 0 4.816-4.561 4.816-4.842 0-.131.16-.416.355-.631 1.245-1.376 2.833-5.459 3.398-8.74.362-2.098.49-73.73.135-75.168a97.549 97.549 0 0 1-.489-2.149 16.646 16.646 0 0 0-.811-2.558c-.284-.657-.445-1.195-.358-1.197.087-.002.056-.079-.069-.171-.125-.092-.432-.573-.683-1.07-1.913-3.801-5.661-7.459-10.005-9.765-1.959-1.04-3.124-1.698-5.416-3.058-.977-.58-1.964-1.161-2.193-1.291a6.316 6.316 0 0 1-.745-.51c-.181-.15-.382-.221-.447-.156-.064.064-.246-.039-.404-.23-.159-.19-.376-.346-.483-.346-.108 0-.736-.333-1.397-.739a59.92 59.92 0 0 0-3.696-2.124 31.024 31.024 0 0 1-2.047-1.212c-.5-.332-1.472-.898-2.16-1.259a58.885 58.885 0 0 1-2.615-1.484c-1.584-.961-1.595-.967-4.435-2.579a133.535 133.535 0 0 1-3.297-1.93 30.741 30.741 0 0 0-1.933-1.102c-.438-.219-1.331-.738-1.985-1.152-.653-.414-1.421-.855-1.705-.979-.284-.124-.926-.481-1.427-.793-.5-.313-1.318-.794-1.819-1.07-.5-.277-1.081-.609-1.29-.738a95.745 95.745 0 0 0-2.274-1.274c-1.041-.571-2.354-1.336-2.917-1.7a25.303 25.303 0 0 0-1.819-1.067c-.438-.224-1.461-.816-2.274-1.316-.813-.5-1.734-1.034-2.047-1.187-.312-.152-.619-.33-.682-.395-.205-.214-1.007-.666-2-1.126a12.845 12.845 0 0 1-1.702-.974 14.317 14.317 0 0 0-1.184-.768 87.934 87.934 0 0 1-1.3-.73c-1.057-.603-3.932-1.833-4.582-1.959a42.125 42.125 0 0 1-1.843-.455c-1.47-.39-6.743-.466-8.423-.121" fill="#141315"/></g></svg>