<svg viewBox="0 0 790 570" xmlns="http://www.w3.org/2000/svg" fill-rule="evenodd" clip-rule="evenodd" stroke-linejoin="round" stroke-miterlimit="1.414"><path d="M158.905 458.45c-22.446 0-42.852-18.366-42.852-40.812 0-22.447 18.365-40.812 42.852-40.812s42.853 18.365 42.853 40.812c0 22.446-20.406 40.811-42.853 40.811zm526.47-222.424c-4.081-32.649-24.487-59.177-51.015-79.583l-10.202-8.162-8.163 10.203c-16.324 18.365-22.446 51.014-20.406 75.501 2.04 18.366 8.163 36.731 18.366 51.015-8.163 4.081-18.366 8.162-26.528 12.243-18.365 6.122-36.73 8.163-55.096 8.163H3.82L1.78 317.65C-2.3 356.42 3.82 397.232 20.146 433.962l8.162 14.284v2.041C77.282 531.91 165.027 568.64 260.934 568.64c183.653 0 334.655-79.582 406.076-250.99 46.933 2.04 93.866-10.204 116.313-55.097l6.12-10.202-10.201-6.122c-26.528-16.325-63.258-18.365-93.867-10.203zM422.14 203.377h-79.582v79.582h79.582v-79.582zm0-99.989h-79.582v79.583h79.582v-79.583zm0-102.029h-79.582v79.583h79.582V1.36zm97.948 202.018h-79.583v79.582h79.583v-79.582zm-295.884 0H144.62v79.582h79.583v-79.582zm99.988 0H244.61v79.582h79.582v-79.582zm-197.936 0H46.673v79.582h79.583v-79.582zm197.936-99.989H244.61v79.583h79.582v-79.583zm-99.988 0H144.62v79.583h79.583v-79.583z" fill="#061d2f" fill-rule="nonzero"/></svg>