<svg width="400" height="400" xmlns="http://www.w3.org/2000/svg"><g fill-rule="evenodd"><path d="M0 200v200h400V0H0v200M227.909 22.621l.891.624v134.204c0 91.745-.131 134.448-.414 134.977-.584 1.092-197.867 1.236-198.957.145-.569-.569-.629-13.375-.629-134.977V23.245l.884-.619c1.358-.951 196.868-.956 198.225-.005m63.717-.207c.955.511 1.237 35.363.294 36.306-.362.362-6.016.48-22.991.48h-22.511l-.57-.9c-.899-1.417-.856-34.598.046-35.6.748-.831 44.205-1.103 45.732-.286m76.548-.024l1.026.39v134.73c0 104.257-.109 134.839-.48 135.21-.695.695-59.945.695-60.64 0-.542-.542-.715-268.949-.174-269.76.162-.242.564-.543.894-.668 1.081-.412 58.282-.317 59.374.098m-78 47.6l1.026.39v110.636c0 75.5-.132 110.882-.414 111.41-.512.957-45.359 1.241-46.306.294-.894-.894-.675-222.167.22-222.688.933-.543 44.051-.583 45.474-.042m76.8 237.6l1.026.39v29.996c0 29.247-.019 30.006-.774 30.41-1.441.771-337.425.558-338.197-.215-1.021-1.02-.951-59.944.071-60.539.948-.552 336.422-.594 337.874-.042" fill="#fff"/><path d="M30.4 24.259c0 1.057.006 1.06.842.303 1.102-.997 194.08-1.223 195.278-.228.426.353.694 1.368.794 3 .116 1.894.143 1.724.118-.734l-.032-3.2-98.5-.103-98.5-.103v1.065m216.267-.792c-.147.146-.253 1.001-.237 1.9l.031 1.633.469-1.271c.259-.7.62-1.42.803-1.6.183-.181 9.453-.424 20.6-.54l20.267-.21-20.833-.09c-11.459-.049-20.954.031-21.1.178m42.133.086c0 .347 2.065.91 2.34.638.077-.076.021-.33-.124-.564-.316-.513-2.216-.576-2.216-.074m20.087-.016c-.371.236-.406.592-.125 1.294.213.533.399.749.413.479.082-1.595 1.144-1.655 29.803-1.693 25.909-.034 27.551.005 28.058.673.502.662.539.65.551-.19l.013-.9-29.1.006c-16.005.003-29.331.153-29.613.331M246.573 42.6c0 5.5.057 7.805.126 5.123.069-2.682.069-7.182 0-10-.069-2.818-.125-.623-.126 4.877m-.119 13.5c-.047 1.294.067 1.5.822 1.5.781 0 .806-.055.229-.5-.357-.275-.727-.95-.822-1.5-.125-.717-.189-.576-.229.5m43.846.733c-.67.734-.665.767.1.767.533 0 .8-.267.8-.8 0-.948-.004-.948-.9.033M245.25 73.5c.049 2.239.057 2.256.322.635.15-.916.51-1.951.799-2.3.453-.546.408-.635-.322-.635-.773 0-.845.207-.799 2.3m.02 216l-.07 2.1 2.3-.06c1.265-.033 1.76-.127 1.1-.21-2.826-.352-2.946-.438-3.107-2.232-.146-1.621-.156-1.603-.223.402m-18.332 1.103c-.376.809-.357.997.1.997.333 0 .562-.408.562-1 0-1.245-.084-1.245-.662.003m61.573.186l-.89.722.999.191c1.129.215 1.579-.22 1.102-1.065-.271-.48-.463-.456-1.211.152m-258.111.197c0 .399.374.614 1.067.614 1.172 0 1.157-.071-.167-.76-.746-.388-.9-.363-.9.146M29.6 338v29.6h.876c.801 0 .817-.043.191-.501-.638-.467-.678-2.468-.576-28.9L30.2 309.8l1.4-.699 1.4-.7h-1.7l-1.7-.001V338m336.224 29.013c-.759.574-.757.587.1.587.512 0 .876-.249.876-.6 0-.724-.003-.724-.976.013" fill="#b12156"/><path d="M30.08 23.28c-.755.755-.693 268.045.062 268.672.399.331 26.578.423 99.1.349l98.558-.101.101-134.376c.08-107.237-.001-134.44-.4-134.694-.877-.557-196.863-.408-197.421.15m216.42-.215c-.965.389-.699 34.4.274 34.921 1.413.757 43.83.553 44.597-.215 1.077-1.076.939-33.977-.145-34.557-.785-.42-43.7-.563-44.726-.149m62.438.041c-.254.162 12.841.246 29.1.186l29.562-.107V291.6H308.849l-.242-1.7c-.134-.935-.19-61.055-.125-133.6.065-72.545-.017-131.9-.182-131.9-.546 0-.366 266.974.18 267.52.555.555 58.548.704 59.416.153.74-.47.753-268.468.013-268.938-.636-.403-58.338-.432-58.971-.029M227.501 157.5l.1 134.1H30.4V23.194l98.5.103 98.5.103.101 134.1m63.614-117l.114 17.1H246.4V40.667c0-9.314.124-17.058.275-17.209.152-.151 10.187-.226 22.3-.167L291 23.4l.115 17.1m-46.13 30.4c-.104.275-.144 50.18-.087 110.9L245 292.2l22.155.103c16.029.075 22.306-.021 22.7-.349.567-.471.867-219.449.302-220.921-.326-.85-44.85-.981-45.172-.133m44.494.445c.21.21.135 220.458-.075 220.355-.112-.055-10.104-.1-22.204-.1h-22V71.246l1.7-.123c2.09-.151 42.416.059 42.579.222M29.384 308.5c-.105.275-.144 13.73-.087 29.9l.103 29.4H367v-59.6l-168.712-.1c-134.76-.081-168.751 0-168.904.4M366.8 338v29.6H29.6v-59.2h337.2V338" fill="#e54781"/><path d="M32.4 23.882c-2.175.806-2-10.904-2 133.97v132.527l1.182.612c1.052.544 11.819.6 98.088.51l96.906-.101.51-1c.931-1.826.535-264.951-.4-265.886-.705-.704-192.407-1.328-194.286-.632m216.032.061c-1.736.498-1.867 1.832-1.751 17.791.098 13.47.172 14.913.79 15.366 1.337.98 41.933.696 42.929-.3 1.052-1.052 1.267-30.808.232-32.224-.587-.803-39.568-1.388-42.2-.633m61.915.275c-.578.307-1.208.878-1.4 1.27-.555 1.139-.66 263.671-.105 265.012l.455 1.1h28.672c21.766 0 28.787-.116 29.151-.48.751-.751.668-265.839-.084-266.829-.732-.966-54.872-1.035-56.689-.073M247.69 71.129c-2.475.351-2.278-8.458-2.412 107.653-.126 108.469-.095 111.727 1.055 112.277 1.825.873 41.047.629 42.18-.262l1.087-.855V181.02c0-89.278-.094-109-.524-109.357-.48-.399-38.849-.894-41.386-.534M31.6 309.1l-1.4.7-.109 28.399c-.102 26.432-.062 28.433.576 28.9 1.172.856 334.039.723 335.263-.135l.908-.636-.068-28.576c-.065-27.06-.106-28.597-.788-28.961-1.506-.807-332.764-.5-334.382.309" fill="#fc1368"/><path d="M29.684 22.626l-.884.619v134.349c0 121.602.06 134.408.629 134.977 1.09 1.091 198.373.947 198.957-.145.283-.529.414-43.232.414-134.977V23.245l-.891-.624c-1.357-.951-196.867-.946-198.225.005m216.21.074c-.902 1.002-.945 34.183-.046 35.6l.57.9h22.511c16.975 0 22.629-.118 22.991-.48.943-.943.661-35.795-.294-36.306-1.527-.817-44.984-.545-45.732.286m62.906-.408c-.33.125-.732.426-.894.668-.541.811-.368 269.218.174 269.76.695.695 59.945.695 60.64 0 .371-.371.48-30.953.48-135.21V22.78l-1.026-.39c-1.092-.415-58.293-.51-59.374-.098m-81.299.838c.399.254.48 27.457.4 134.694L227.8 292.2l-98.558.101c-72.522.074-98.701-.018-99.1-.349-.755-.627-.817-267.917-.062-268.672.558-.558 196.544-.707 197.421-.15m63.725.084c1.084.58 1.222 33.481.145 34.557-.767.768-43.184.972-44.597.215-.973-.521-1.239-34.532-.274-34.921 1.026-.414 43.941-.271 44.726.149m76.683-.079c.74.47.727 268.468-.013 268.938-.955.606-58.941.396-59.449-.216-.779-.939-.428-268.172.353-268.665.739-.468 58.375-.522 59.109-.057M244.7 70.032c-.895.521-1.114 221.794-.22 222.688.947.947 45.794.663 46.306-.294.282-.528.414-35.91.414-111.41V70.38l-1.026-.39c-1.423-.541-44.541-.501-45.474.042m45.457 1.001c.565 1.472.265 220.45-.302 220.921-.394.328-6.671.424-22.7.349L245 292.2l-.102-110.4c-.057-60.72-.017-110.625.087-110.9.322-.848 44.846-.717 45.172.133M29.1 307.632c-1.022.595-1.092 59.519-.071 60.539.772.773 336.756.986 338.197.215.755-.404.774-1.163.774-30.41V307.98l-1.026-.39c-1.452-.552-336.926-.51-337.874.042M367 338v29.8H29.4l-.103-29.4c-.057-16.17-.018-29.625.087-29.9.153-.4 34.144-.481 168.904-.4l168.712.1V338" fill="#f380ae"/></g></svg>