<svg width="400" height="400" xmlns="http://www.w3.org/2000/svg"><g fill-rule="evenodd"><path d="M195.2 79.442c-1.21.782-2.56 1.587-3 1.789-.966.443-1.977 1.068-3.673 2.268-.701.496-1.404.901-1.563.901-.158 0-.878.45-1.6 1-.721.55-1.43 1-1.576 1-.145 0-.742.338-1.326.75A30.96 30.96 0 0 1 180 88.668c-.77.422-2.426 1.434-3.681 2.249-1.254.816-2.469 1.483-2.7 1.483-.23 0-.419.139-.419.309 0 .17-.675.663-1.5 1.096-.825.433-1.59.879-1.7.991-.11.112-.56.413-1 .669-2.076 1.208-8.272 4.991-10.357 6.325l-2.326 1.488 1.141.688c.628.378 2.132 1.214 3.342 1.858 1.21.643 2.29 1.261 2.4 1.373.11.112 1.01.609 2 1.104.99.495 3.15 1.639 4.8 2.542 1.65.903 4.08 2.205 5.4 2.894 1.32.688 2.49 1.344 2.6 1.457.224.231 1.6.985 6 3.292 1.65.865 4.17 2.208 5.6 2.986 8.098 4.403 6.976 4.2 10.621 1.928 1.588-.99 3.088-1.8 3.333-1.8.245 0 .446-.159.446-.353 0-.195.315-.459.7-.589.699-.234 1.231-.548 3.497-2.058.66-.44 1.668-1.07 2.241-1.4.573-.33 2.695-1.59 4.716-2.8 2.021-1.21 3.985-2.38 4.363-2.6.378-.22 2.088-1.255 3.799-2.3 1.712-1.045 3.182-1.9 3.267-1.9.084 0 1.605-.9 3.378-2 1.774-1.1 3.408-2 3.632-2 .224 0 .407-.139.407-.309 0-.17.675-.656 1.5-1.081 2.518-1.296 2.6-1.416 1.533-2.256-.528-.415-1.062-.754-1.188-.754-.197 0-1.507-.77-5.255-3.089-.434-.269-1.42-.8-2.19-1.18-.77-.38-2.528-1.375-3.907-2.211-1.379-.836-2.59-1.52-2.692-1.52-.158 0-2.099-1.152-5.211-3.093-.434-.271-1.51-.854-2.39-1.296-.88-.442-2.5-1.337-3.6-1.988-1.1-.652-2.63-1.499-3.4-1.881a26.092 26.092 0 0 1-2.6-1.52c-5.391-3.703-6.404-3.916-9.4-1.98m62.586 32.697c-.448.254-2.183 1.316-3.855 2.361-1.672 1.045-3.225 1.9-3.452 1.9-.227 0-.472.142-.546.317-.073.174-2.38 1.659-5.127 3.3-2.746 1.64-5.356 3.201-5.8 3.467-.443.267-1.076.617-1.406.78-.511.251-6.969 4.164-8.8 5.331-.33.211-1.23.696-2 1.079s-1.638.927-1.929 1.211c-.29.283-.785.515-1.1.515-.314 0-.571.159-.571.353 0 .195-.315.462-.7.594-4.403 1.512-4.907 3.147-1.494 4.847 1.401.698 3.942 2.165 6.404 3.698.434.271 1.69.942 2.79 1.493 1.1.55 2.72 1.448 3.6 1.995.88.548 2.32 1.374 3.2 1.836 2.766 1.454 4.745 2.547 6.718 3.709a141.25 141.25 0 0 0 4.596 2.547c1.477.782 2.776 1.536 2.886 1.675.11.139.92.61 1.8 1.047.88.437 2.5 1.337 3.6 2s2.72 1.564 3.6 2.002c.88.438 1.69.888 1.8 1.001.11.112 1.037.612 2.06 1.112 2.53 1.234 2.34-1.864 2.34 38.129v35.972l-2.11 1.295c-3.315 2.035-3.539 2.161-6.29 3.531-1.43.712-2.69 1.4-2.8 1.529-.208.244-1.297.854-5.438 3.048a261.094 261.094 0 0 0-4.4 2.391 344.832 344.832 0 0 1-4.762 2.595 284.32 284.32 0 0 0-4.4 2.401c-.88.496-2.95 1.631-4.6 2.521-1.65.89-3.63 1.997-4.4 2.46-.77.463-2.12 1.197-3 1.63-.88.434-1.69.879-1.8.989-.11.11-.83.534-1.6.942a517.125 517.125 0 0 0-8.8 4.783 211.94 211.94 0 0 1-4 2.18c-.99.522-2.7 1.482-3.8 2.135-1.1.652-2.27 1.283-2.6 1.402-.33.119-.924.39-1.32.603-.551.296-1.428.002-3.751-1.258-4.278-2.32-4.704-2.562-4.929-2.791-.11-.112-.92-.562-1.8-1-.88-.438-1.69-.886-1.8-.996-.201-.201-4.625-2.569-6.297-3.37-.493-.237-.898-.565-.9-.73-.002-.165-.189-.3-.415-.3-.374 0-4.343-2.169-7.388-4.036-.66-.405-2.1-1.189-3.2-1.743-1.854-.933-4.706-2.537-7.6-4.275a54.21 54.21 0 0 0-2.8-1.529 74.17 74.17 0 0 1-3.6-1.998 75.194 75.194 0 0 0-3.6-2c-.88-.446-2.5-1.34-3.6-1.986-1.1-.646-2.9-1.661-4-2.254s-2.99-1.63-4.2-2.303c-1.21-.674-2.74-1.487-3.4-1.808-.66-.32-1.605-.948-2.1-1.395l-.9-.812v-55.68l-2.5-1.306a202.358 202.358 0 0 1-3.1-1.645c-.33-.187-1.68-.854-3-1.484s-2.46-1.281-2.533-1.446c-.074-.165-.374-.3-.668-.3-.508 0-2.974-1.167-3.399-1.608-.11-.115-2.45-1.33-5.2-2.701s-5.45-2.743-6-3.049c-.55-.306-3.07-1.58-5.6-2.832-2.53-1.252-5.14-2.578-5.8-2.947a19.858 19.858 0 0 0-2.5-1.131l-1.3-.463v50.966c0 49.59.02 50.965.751 50.965.413 0 .975.27 1.249.6.274.33.746.6 1.049.6.303 0 .551.16.551.357 0 .196.409.459.908.584.499.125 1.302.595 1.783 1.044.482.448 1.131.815 1.443.815.313 0 .792.27 1.066.6.274.33.652.6.841.6.189 0 1.292.599 2.451 1.332 1.16.733 2.378 1.455 2.708 1.605.33.151 1.5.821 2.6 1.49 1.1.668 2.315 1.317 2.7 1.441.385.124.7.384.7.579 0 .194.257.353.571.353.315 0 .81.225 1.1.5.291.275 1.069.766 1.729 1.091.66.324 2.609 1.449 4.332 2.5 1.722 1.05 3.204 1.909 3.293 1.909.088 0 1.337.72 2.775 1.6 1.438.88 2.791 1.6 3.007 1.6.216 0 .393.18.393.4 0 .22.351.4.78.4.429 0 .924.225 1.1.501.176.275.86.767 1.52 1.094.66.326 2.328 1.271 3.707 2.099 1.379.828 2.59 1.506 2.692 1.506.162 0 2.833 1.59 5.211 3.103.434.276 1.06.623 1.39.77.33.148 1.287.696 2.126 1.219 1.54.96 2.118 1.292 6.474 3.726 1.32.738 2.49 1.44 2.6 1.562.11.121.92.57 1.8.997.88.428 2.14 1.158 2.8 1.623.66.466 1.83 1.156 2.6 1.534 1.601.787 2.909 1.561 3.2 1.895.11.126.47.357.8.512.33.156 1.5.817 2.6 1.468 1.1.652 2.315 1.297 2.7 1.435.385.137.7.408.7.603 0 .194.225.353.5.354.275 0 2.447 1.17 4.826 2.6 2.38 1.429 4.495 2.599 4.7 2.599.206 0 .374.141.374.312 0 .172.495.523 1.1.78.605.257 1.82.93 2.7 1.494.88.565 1.915 1.135 2.3 1.267.385.132.702.354.704.494.002.139.812.608 1.8 1.043.988.434 1.796.915 1.796 1.068 0 1.453 3.373.555 7.8-2.077 1.1-.654 2.72-1.557 3.6-2.007.88-.45 2.444-1.303 3.475-1.896 2.937-1.689 5.172-2.932 7.125-3.965a67.265 67.265 0 0 0 2.59-1.432c3.285-1.999 5.028-3.001 6.41-3.687.88-.437 1.69-.884 1.8-.994.11-.11.56-.396 1-.637.44-.24 1.88-1.036 3.2-1.769 1.32-.733 3.3-1.792 4.4-2.354 1.1-.561 2.09-1.115 2.2-1.23.11-.116.56-.406 1-.647.927-.505 4.158-2.302 7.6-4.226 1.32-.738 3.12-1.7 4-2.139.88-.439 1.69-.888 1.8-.998.324-.324 1.686-1.127 3.4-2.006.88-.451 2.23-1.197 3-1.658.77-.461 2.75-1.565 4.4-2.454 4.201-2.263 4.791-2.594 6.6-3.712.88-.543 2.05-1.2 2.6-1.459.55-.26 1.45-.767 2-1.127.883-.578 4.347-2.476 10-5.478a94.8 94.8 0 0 0 3-1.664 215.807 215.807 0 0 1 6.2-3.491c.77-.413 1.49-.841 1.6-.951.11-.11.83-.538 1.6-.951 2.288-1.228 4.907-2.718 6.4-3.642.77-.476 1.715-.982 2.1-1.124 1.089-.401 1.089-122.563 0-122.969-.385-.144-1.51-.751-2.5-1.349-3.834-2.316-5.441-3.223-6.5-3.673-.605-.257-1.1-.608-1.1-.78 0-.171-.257-.312-.571-.312-.315 0-.81-.232-1.1-.515-.291-.284-1.159-.835-1.929-1.226s-2.3-1.233-3.4-1.872c-1.1-.64-2.27-1.287-2.6-1.44-.33-.152-1.05-.585-1.6-.961s-1.99-1.217-3.2-1.869a242.159 242.159 0 0 1-7.4-4.161c-.66-.392-2.161-1.201-3.336-1.799-1.175-.597-2.348-1.282-2.608-1.522-.259-.239-1.368-.904-2.464-1.478-3.34-1.748-4.782-2.547-4.992-2.765-.942-.979-2.704-1.281-3.814-.653" fill="#fff"/><path d="M0 200v200h400V0H0v200M200 77c.274.33.724.6 1 .6s.738.284 1.027.632c.296.357.911.558 1.412.463.622-.119.826-.009.682.367-.114.296.038.539.336.54.299.001 1.353.54 2.343 1.198.99.658 2.109 1.197 2.486 1.198.377.001.879.362 1.114.802.235.44.782.8 1.214.8.432 0 .786.151.786.336 0 .185 1.125.91 2.5 1.61 1.375.701 3.04 1.631 3.7 2.069.66.437 1.515.903 1.9 1.036s.7.401.7.596c0 .194.207.353.46.353.62 0 4.7 2.011 4.971 2.451.119.192.746.349 1.393.349.779 0 1.176.203 1.176.6 0 .33.27.6.6.6.33 0 .6.157.6.348 0 .379 5.112 3.443 6.454 3.869.454.144 1.154.559 1.557.922.402.364 1.039.916 1.414 1.227.642.533.64.597-.031 1.088-.608.444-.633.617-.172 1.172.481.58.409.638-.657.526-.734-.077-1.655.195-2.381.704-.651.456-1.364.901-1.584.987-1.849.726-5.813 3.347-5.661 3.743.129.335-.136.427-.841.292-.831-.159-.98-.07-.776.463.174.454.039.659-.435.66-.378.001-1.731.631-3.007 1.4-1.276.769-2.418 1.399-2.538 1.399-.12 0-.784.405-1.475.9-1.447 1.036-4.134 2.56-5.19 2.943-.398.144-.628.508-.512.81.141.369-.101.547-.744.547-.525 0-1.014.135-1.088.3-.073.165-1.2.84-2.505 1.5s-4.06 2.235-6.124 3.5c-2.064 1.265-3.927 2.3-4.141 2.3-.213 0-.492.27-.618.6-.488 1.27-6.545.335-6.545-1.01 0-.215-.28-.39-.623-.39-.343 0-1.429-.45-2.414-1-.985-.55-2.055-1-2.377-1-.322 0-.586-.181-.586-.401 0-.221-.72-.713-1.6-1.095-.88-.381-1.6-.83-1.6-.998 0-.168-.257-.306-.571-.306-.315 0-.862-.29-1.216-.644-.373-.373-1.042-.567-1.592-.462-.646.123-.887.022-.756-.32.107-.277-.223-.632-.736-.792-.511-.159-1.019-.401-1.129-.536-.11-.135-1.775-1.048-3.7-2.029-1.925-.98-3.5-1.925-3.5-2.1 0-.174-.345-.317-.767-.317-.421 0-.826-.142-.9-.316-.193-.459-4.209-2.484-4.926-2.484a.605.605 0 0 1-.607-.6c0-.33-.274-.6-.608-.6-.334 0-1.321-.45-2.192-1-.871-.55-1.747-1-1.946-1-1.081 0-4.054-2.256-4.054-3.076 0-.565 4.11-3.724 4.845-3.724.264 0 1.069-.45 1.791-1 .721-.55 1.42-1 1.554-1 .134 0 1.237-.734 2.451-1.631 1.214-.896 2.782-1.889 3.483-2.206 1.287-.58 2.707-1.394 3.076-1.763.345-.345 1.746-1.178 3.2-1.902.77-.384 1.49-.788 1.6-.898.404-.404 1.82-1.23 2.5-1.458.385-.13.7-.394.7-.589 0-.194.257-.353.571-.353.315 0 .834-.262 1.154-.582.708-.708 2.689-1.908 4.975-3.015.935-.453 1.7-.998 1.7-1.213 0-.214.36-.39.8-.39.44 0 .8-.139.8-.309 0-.17.675-.665 1.5-1.099.825-.435 1.719-.971 1.986-1.191.267-.221.755-.626 1.083-.901.329-.275.763-.5.965-.5.202 0 .592-.27.866-.6.281-.338 1.153-.6 2-.6s1.719.262 2 .6m60 33.003c0 .222.72.692 1.6 1.044.88.352 1.6.8 1.6.996 0 .197.179.357.397.357.683 0 3.603 1.373 3.603 1.694 0 .168.36.306.8.306.47 0 .8.267.8.647 0 .463.242.583.855.423.551-.144 1.083.043 1.5.528.937 1.091 3.505 2.402 4.706 2.402.876 0 .96.093.539.6-.414.499-.364.6.302.6.44 0 1.024.27 1.298.6.274.33.746.6 1.049.6.303 0 .551.18.551.4 0 .22.334.4.742.4.407 0 1.241.464 1.853 1.03.826.766 1.367.966 2.109.78.812-.204.95-.129.745.407-.172.448.003.724.549.867.441.115.802.368.802.563 0 .194.315.358.7.363.385.006 1.682.636 2.881 1.4 1.2.765 2.486 1.39 2.858 1.39.371 0 .766.236.877.524.11.289.894.734 1.742.99s2.029.92 2.625 1.476c.595.555 1.534 1.01 2.087 1.01.729 0 .942.165.775.6-.17.441.052.6.836.6.586 0 .979.141.872.314-.107.173.108.333.476.356 3.756.235 7.076 4.505 5.619 7.228-.389.727-.399 1.024-.039 1.246.343.212.447 2.583.383 8.674-.049 4.61-.041 31.569.018 59.908l.107 51.526-.836 1.174c-.459.646-1.058 1.174-1.33 1.174s-1.384.432-2.472.959c-1.089.528-2.637 1.072-3.44 1.211-.804.138-1.555.494-1.668.789-.114.296-.696.661-1.293.811-.598.15-1.648.692-2.333 1.205-.685.513-1.65 1.055-2.145 1.206-.495.15-.9.507-.9.793 0 .308-.678.612-1.658.743-.911.122-1.766.371-1.9.553-.684.933-4.073 3.33-4.709 3.331-.403.001-1.322.361-2.043.8-.72.44-1.676.799-2.123.799-.448 0-.708.171-.579.38.22.356-2.466 2.272-5.188 3.701-.66.347-1.92 1.012-2.8 1.478-.88.466-1.812 1.132-2.07 1.48-.259.348-1.172.79-2.028.983-2.195.493-5.968 2.863-7.017 4.407-.691 1.017-1.585 1.554-4.072 2.444-1.753.628-3.364 1.318-3.58 1.534-.216.216-.875.393-1.464.393s-1.276.247-1.526.548c-.25.301-1.262.856-2.249 1.233-.987.377-1.794.853-1.794 1.059 0 .205-.585.625-1.3.933-.715.308-1.997.864-2.848 1.235-.852.372-1.631.972-1.731 1.334-.253.909-2.764 2.593-5.005 3.357-1.027.349-2.493 1.28-3.258 2.068-.765.788-1.676 1.433-2.025 1.433-.348 0-.633.18-.633.4 0 .22-.382.4-.848.4-.466 0-2.553.824-4.636 1.83-2.084 1.007-3.884 1.736-4 1.619-.442-.442-1.258.885-1.046 1.699.253.964.318.939-2.711 1.036-2.004.063-2.396.226-3.713 1.543-.81.81-1.814 1.473-2.231 1.473-.776 0-2.015.984-2.015 1.602 0 .189-.405.458-.9.596-1.073.301-1.639.539-5.3 2.233-4.013 1.857-8.6 1.513-8.6-.645 0-.287-.909-.824-2.02-1.193-1.111-.369-2.776-1.247-3.7-1.951-3.497-2.665-6.524-4.545-7.752-4.814-1.178-.259-2.667-1.406-1.877-1.446.419-.021-2.118-.992-4.744-1.815-1.924-.603-3.175-1.911-2.204-2.303.313-.127.256-.213-.153-.232-1.009-.049-5.05-1.932-5.216-2.431-.082-.244-.415-.491-.741-.547-1.081-.186-4.581-2.154-5.355-3.011-.419-.464-.991-.843-1.271-.843-.279 0-.567-.287-.638-.638-.111-.55-.276-.522-1.192.2-1.776 1.4-2.997 1.098-1.522-.377.448-.448.723-.961.612-1.141-.304-.492-9.294-4.844-10.007-4.844-.742 0-.826-.65-.12-.935.275-.111.106-.216-.376-.233-.482-.018-.986.144-1.119.36-.305.493-1.546-.183-3.289-1.792-2.046-1.889-2.196-1.99-4.411-2.991-1.152-.521-2.199-1.276-2.327-1.678-.137-.432-.613-.731-1.163-.731-.512 0-1.508-.54-2.215-1.2-.707-.66-1.516-1.2-1.8-1.2-.283 0-.614-.26-.736-.578-.161-.419-.642-.521-1.743-.372-1.319.179-1.434.135-.866-.333.596-.491.569-.581-.3-.991-.526-.248-.855-.288-.732-.089.123.2.034.363-.199.363s-.424-.27-.424-.6c0-.33-.191-.6-.424-.6-.233 0-.312-.18-.176-.4.14-.226-.192-.4-.764-.4-.988 0-5.836-3.008-5.836-3.62 0-.17-.855-.28-1.9-.245-1.39.048-1.871-.077-1.79-.465.06-.291-.076-.414-.304-.274-.545.337-2.076-.159-1.811-.587.113-.184.566-.24 1.005-.125 1.001.262 1.066-.546.071-.862-.402-.127-1.145-.618-1.652-1.09-.766-.714-1.052-.779-1.687-.382-.892.557-1.682.217-1.372-.59.139-.361-.06-.56-.56-.56-.524 0-.7-.194-.545-.6.167-.435-.045-.6-.769-.6-.55 0-1.104-.27-1.231-.6-.126-.33-.562-.6-.967-.6-.405 0-1.133-.369-1.618-.82-.484-.452-1.067-.706-1.294-.565-.843.521-1.722-.157-1.129-.872.482-.581.405-.618-.755-.363-.966.212-1.292.145-1.292-.265 0-.314-.782-.758-1.824-1.037-1.002-.268-2.238-.935-2.745-1.483-.508-.547-1.127-.995-1.377-.995s-.454-.18-.454-.4c0-.22.27-.4.6-.4.774 0 .765-.787-.023-1.911-.477-.681-.5-.889-.1-.889.427-.001.55-9.238.669-50.3.08-27.665.287-50.453.46-50.64.354-.383 3.194.524 3.194 1.02 0 .176.345.32.768.32.867 0 3.226 1.242 3.229 1.7.002.165.438.3.97.3.531 0 1.026.148 1.1.328.073.18 1.213.867 2.533 1.526 2.222 1.109 3.479 1.762 5 2.601.781.431 3.747 1.856 4.899 2.353.495.215 1.171.556 1.501.758.33.202 1.32.679 2.2 1.06.88.381 1.69.801 1.8.933.19.229 2.957 1.622 6 3.02.77.354 1.67.803 2 .999.33.195 1.23.645 2 1 .77.354 1.67.798 2 .985.33.188 1.305.679 2.167 1.091 1.561.748 3.328 3.117 2.64 3.542-.531.328-.141 50.806.4 51.818.335.625.294.849-.19 1.035-1.167.448-.622.988.738.733 1.07-.201 1.576-.063 2.4.654 1.252 1.088 1.377 1.77.211 1.146-.459-.246-.935-.346-1.058-.224-.122.123.118.349.535.503.416.155.878.461 1.025.682.147.22.579.446.96.502.381.056.822.313.982.571.17.275.643.358 1.14.2.612-.194.85-.1.85.338 0 .335.675.923 1.5 1.306.825.384 1.615.866 1.755 1.07.141.205.468.241.727.081.29-.179.556.032.692.549.157.603.538.84 1.349.84.621 0 1.246.187 1.387.416.616.998 3.424 2.391 4.349 2.158 1.185-.297 1.707.418.749 1.028-.58.37-.466.411.634.226 1.113-.186 1.301-.116 1.099.411-.163.423.024.705.557.845.441.115.802.345.802.511 0 .166.855.421 1.9.567 1.872.262 3.7 1.35 3.7 2.202 0 .24.29.436.644.436.763 0 4.556 2.387 4.556 2.867 0 .183.675.336 1.5.339 1.163.005 1.365.101.9.426-.47.33-.406.366.296.168 1.254-.352 1.878.107 1.223.902-.456.554-.389.598.56.362.773-.192 1.179-.09 1.432.363.194.347 1.107.732 2.028.856 1.42.19 1.774.433 2.328 1.601.48 1.011.851 1.326 1.394 1.184.408-.106.875.015 1.04.269.42.65 6.141 3.464 7.041 3.463.409 0 1.097.45 1.529 1 .433.55 1.14 1 1.571 1 .431 0 .882.259 1.004.575.121.316.457.484.747.372.289-.111.647-.007.794.232 1.315 2.127 7.478 1.589 9.413-.822.11-.137.6-.374 1.09-.527.489-.152 1.223-.701 1.63-1.22.408-.518 1.509-1.148 2.446-1.401.938-.252 2.419-.831 3.29-1.285l1.585-.826-.854-.796c-.606-.565-.73-.919-.426-1.223.304-.304.712-.162 1.408.491 1.336 1.256 3.431.482 3.431-1.268 0-1.16.818-1.458 1.982-.722.644.408 2.818-.648 2.818-1.369 0-.411.275-.548 4.2-2.098 1.419-.561 1.966-.984 1.881-1.457-.153-.86 1.087-1.351 1.553-.614.253.399.355.415.36.058.003-.275.28-.5.614-.5.334 0 1.35-.495 2.257-1.1 2.739-1.827 3.289-2.088 4.412-2.094.618-.003 1.316-.346 1.636-.803.307-.439.679-.711.826-.604.147.107.094-.012-.119-.265-.612-.729 4.087-3.623 5.364-3.302.649.163 1.214.027 1.633-.392.352-.352.888-.64 1.191-.64.303 0 1.056-.512 1.672-1.138.616-.625 1.89-1.354 2.832-1.619.941-.265 1.626-.619 1.522-.787-.241-.39 1.15-2.533 1.616-2.489.192.018.35.258.35.533 0 .745 1.988.838 2.583.12.283-.341.808-.623 1.166-.626.568-.005.574-.058.051-.407-.507-.339-.426-.556.522-1.394 1.148-1.015 2.278-1.309 2.278-.593 0 .22.202.4.449.4.316 0 .306-.172-.034-.582-.266-.321-.352-.797-.19-1.058.482-.78.272-2.748-.457-4.283-.567-1.196-.602-1.645-.204-2.658.347-.888.541-9.551.713-31.875l.235-30.656-1.304-.286c-.774-.17-1.384-.588-1.498-1.026-.156-.594-.44-.69-1.452-.49-1.089.215-1.191.168-.761-.355.68-.828.224-1.157-.972-.703-1.007.383-1.725.208-1.725-.422 0-.191.225-.424.5-.518.275-.094.095-.104-.4-.022-.609.101-.9-.05-.9-.468 0-.716-1.77-1.533-3.149-1.454-.799.046-.87-.039-.451-.544.416-.501.358-.6-.351-.6-.488 0-.849-.255-.849-.6 0-.331-.355-.6-.792-.6-.436 0-1.784-.634-2.995-1.409-1.588-1.016-2.471-1.342-3.164-1.168-1.191.299-1.719-.414-.757-1.021.565-.358.398-.398-.827-.2-1.416.228-1.514.183-1.273-.577.189-.594.086-.825-.365-.825-.345 0-.627-.18-.627-.4 0-.22-.515-.4-1.144-.4-.752 0-1.4-.341-1.893-.997-.49-.653-.994-.92-1.458-.773-.434.138-.803-.019-.95-.404-.133-.347-.897-.935-1.699-1.307-.801-.373-1.546-.781-1.656-.907-.497-.572-2.432-1.612-2.998-1.612-.345 0-.731-.27-.857-.6-.127-.33-.571-.6-.988-.6-.416 0-.757-.18-.757-.4 0-.22-.36-.4-.8-.4-.44 0-.801-.135-.803-.3-.003-.465-2.368-1.7-3.253-1.7-.435 0-.692-.16-.571-.356.276-.448-1.502-1.642-2.459-1.651-2.697-.026-2.784-2.93-.128-4.276.778-.394 1.504-.828 1.614-.963.11-.135.605-.373 1.1-.527.495-.155.9-.43.9-.612s.945-.82 2.1-1.418c1.155-.598 2.37-1.309 2.7-1.58.33-.272 1.461-.901 2.514-1.398 1.052-.497 2.132-1.116 2.4-1.377.267-.26 1.161-.789 1.986-1.176.825-.387 1.5-.875 1.5-1.085 0-.209.379-.381.843-.381.585 0 .772-.184.612-.6-.149-.39.011-.6.458-.601.378-.001 1.731-.631 3.007-1.4 1.276-.769 2.398-1.399 2.492-1.399.157 0 3.269-1.863 5.198-3.112.434-.281 1.105-.617 1.49-.746.385-.13.7-.375.7-.545 0-.171.45-.423 1-.561.55-.138 1-.428 1-.644 0-.215.255-.392.567-.392.311 0 .626-.165.7-.367.356-.982 7.133-4.05 7.133-3.23m-33.933 136.611c-.59 1.293-1.811 1.174-2.005-.196-.189-1.334 1.051-2.277 1.891-1.437.479.479.5.785.114 1.633M175 245.506c.729.536.612 1.294-.2 1.294-.533 0-.8-.267-.8-.8 0-.834.321-.993 1-.494m-3.097 5.524c-.133.134-.661.11-1.173-.053-.89-.283-.896-.308-.13-.591.798-.294 1.765.183 1.303.644m58.664-.683c.453.733-1.246 1.746-2.134 1.271-.94-.503-1.076-1.053-.333-1.353.829-.334 2.239-.288 2.467.082m87.833 6.476c0 1.11-.87 2.513-1.217 1.963-.429-.679-.506-2.53-.12-2.916.295-.295 1.337.448 1.337.953m-113.2 2.205c0 .417-.292.585-.869.5-1.28-.189-1.417-1.128-.164-1.128.672 0 1.033.219 1.033.628m-9 .172c.136.22-.134.4-.6.4-.466 0-.736-.18-.6-.4.136-.22.406-.4.6-.4.194 0 .464.18.6.4m120.489 9.7c-.088.715-.161.13-.161-1.3 0-1.43.073-2.015.161-1.3.089.715.089 1.885 0 2.6m-5.489 1.924c0 .561-.277.776-1 .776-1.163 0-1.355-.962-.309-1.547.869-.486 1.309-.227 1.309.771M109.8 274.4c.136.22-.123.4-.576.4-.453 0-.824-.18-.824-.4 0-.22.259-.4.576-.4.317 0 .688.18.824.4m6.96 8.924c-.037.815-.062.807-.36-.124-.249-.779-.329-.83-.36-.233-.022.421-.152.654-.289.517-.393-.392.197-1.564.646-1.286.222.137.385.644.363 1.126m168.238.266c.348 1.585.015 2.01-1.573 2.01-3.341 0-2.606-2.744.843-3.146.258-.029.586.482.73 1.136m-6.237 3.363c.544.656-.176 1.047-1.927 1.047-1.516 0-1.838-.459-.747-1.065 1.203-.668 2.11-.661 2.674.018M132.6 292.4c-.136.22-.687.4-1.224.4-.537 0-.976-.18-.976-.4 0-.22.551-.4 1.224-.4.713 0 1.12.167.976.4M268 294c0 .44-.18.8-.4.8-.22 0-.4-.36-.4-.8 0-.44.18-.8.4-.8.22 0 .4.36.4.8m-16.475 6.414c-.881.808-1.66 1.177-2.325 1.1-1.464-.167-1.244-1.231.32-1.551.726-.149 1.431-.381 1.567-.517.135-.135.587-.246 1.004-.246.62 0 .516.222-.566 1.214m-89.709 7.418c-.859.635-1.479.578-1.724-.157-.211-.631 1.58-1.315 2.108-.806.264.254.133.582-.384.963m.116 6.068c.525 1.02.139 1.7-.965 1.7-.746 0-.967-.213-.967-.933 0-1.571 1.261-2.072 1.932-.767m8.868 1.7c0 1.074-.13 1.2-1.233 1.2-.845 0-1.16-.158-1.001-.5.129-.275.345-.815.48-1.2.438-1.24 1.754-.865 1.754.5m6.645.418c.195-.027.413.317.483.766.083.529-.093.816-.5.816-.345 0-.63-.135-.633-.3-.003-.165-.109-.75-.235-1.3-.159-.694-.113-.837.15-.466.209.294.539.512.735.484m43.179.555c.568.42.658.693.334 1.022-.674.684-2.558.066-2.558-.838 0-.911 1.114-1.003 2.224-.184m-45.024 2.384c0 .604-.972 1.138-1.361.749-.527-.527-.192-1.306.561-1.306.44 0 .8.251.8.557m7.163.088c-.756.911-2.072 1.336-2.663.86-1.059-.853-.344-1.362 2.049-1.459 1.013-.041 1.086.03.614.599m24.837 6.224c0 .798-.852 1.931-1.452 1.931-.344 0-1.162.382-1.818.85-.985.701-1.362.773-2.162.408-1.713-.78-.993-1.612 1.942-2.24.611-.131 1.421-.563 1.8-.959.689-.721 1.69-.715 1.69.01m-.1 8.431a.788.788 0 0 1-.7.5.788.788 0 0 1-.7-.5c-.099-.297.184-.5.7-.5s.799.203.7.5" fill="#288aed"/><path d="M196 77c-.274.33-.746.6-1.049.6-.303 0-.551.168-.551.373s-.36.487-.8.627c-.44.14-.8.432-.8.65 0 .218.9-.109 2-.727 1.099-.618 1.999-1.258 2-1.423 0-.654 2.103-.245 3.6.7 1.805 1.14 2.321 1.268 1.6.4-.274-.33-.724-.6-1-.6s-.726-.27-1-.6c-.281-.338-1.153-.6-2-.6s-1.719.262-2 .6m7.448 1.752c-.704.276 1.472 1.837 5.952 4.27.712.387 1.999 1.102 7 3.889.77.429 2.165 1.227 3.1 1.773.935.545 1.7.816 1.7.601 0-.216-.315-.501-.7-.634-.385-.133-1.24-.599-1.9-1.036-.66-.438-2.325-1.368-3.7-2.069-1.375-.7-2.5-1.425-2.5-1.61 0-.185-.354-.336-.786-.336-.432 0-.979-.36-1.214-.8-.235-.44-.737-.801-1.114-.802-.377-.001-1.496-.54-2.486-1.198-.99-.658-2.044-1.197-2.343-1.198-.318-.001-.447-.251-.312-.602.126-.33.191-.587.142-.572-.048.016-.425.161-.839.324M190.8 80.321c-.55.373-1.06.814-1.133.979-.074.165-.459.3-.858.3-.398 0-.828.272-.955.605-.266.692 3.13-1.029 4.26-2.159.674-.674-.18-.495-1.314.275m-5.4 3.302c-.66.421-1.56.929-2 1.129-.44.2-1.233.742-1.761 1.206-.529.463-1.204.842-1.5.842-.297 0-.539.18-.539.4 0 .22-.248.4-.551.4-.303 0-.775.27-1.049.6-.274.33-.398.6-.277.6.257 0 8.692-5.159 9.257-5.662.701-.623-.344-.302-1.58.485m-9.067 5.477c-.073.165-.763.614-1.533.998-1.454.724-2.855 1.557-3.2 1.902-.369.369-1.789 1.183-3.076 1.763-.701.317-2.269 1.31-3.483 2.206-1.214.897-2.317 1.631-2.451 1.631-.134 0-.833.45-1.554 1-.722.55-1.527 1-1.791 1-.735 0-4.845 3.159-4.845 3.724 0 .82 2.973 3.076 4.054 3.076.199 0 1.075.45 1.946 1s1.858 1 2.192 1c.334 0 .608.27.608.6 0 .33.273.6.607.6.717 0 4.733 2.025 4.926 2.484.074.174.479.316.9.316.422 0 .767.143.767.317 0 .175 1.575 1.12 3.5 2.1 1.925.981 3.59 1.894 3.7 2.029.11.135.618.377 1.129.536.513.16.843.515.736.792-.131.342.11.443.756.32.55-.105 1.219.089 1.592.462.354.354.901.644 1.216.644.314 0 .571.138.571.306 0 .168.72.617 1.6.998.88.382 1.6.874 1.6 1.095 0 .22.264.401.586.401.322 0 1.392.45 2.377 1 .985.55 2.026.998 2.314.995.558-.005-1.347-1.168-5.877-3.588a1167.62 1167.62 0 0 1-9.8-5.3c-1.21-.661-3.55-1.933-5.2-2.827-1.65-.894-3.54-1.946-4.2-2.338-.66-.392-2.46-1.351-4-2.131-3.427-1.736-7.023-3.746-7.713-4.311-.616-.504.474-1.841 2.226-2.731.598-.304 3.201-1.862 5.784-3.461 2.583-1.599 4.863-2.908 5.067-2.908a.583.583 0 0 0 .503-.34c.073-.188.868-.773 1.766-1.3 5.302-3.116 6.188-3.671 6.391-3.998.123-.199.048-.362-.167-.362-.215 0-.45.135-.524.3m45.468.901c.136.221 1.002.766 1.923 1.213a44.611 44.611 0 0 1 2.876 1.533c.66.397 2.28 1.316 3.6 2.044 1.32.727 2.851 1.612 3.402 1.966 1.814 1.165 2.582 1.613 3.935 2.295 2.28 1.15 2.106 1.992-.737 3.57-.77.428-1.49.893-1.6 1.034-.11.141-.92.646-1.8 1.121s-1.87 1.032-2.2 1.236c-6.812 4.221-8.412 5.187-8.593 5.187-.119 0-1.652.9-3.407 2-1.755 1.1-3.358 2-3.562 2a.585.585 0 0 0-.505.34c-.114.291-1.405 1.062-5.733 3.423-.44.241-.89.535-1 .655-.298.324-5.549 3.582-5.774 3.582-.107 0-1.326.718-2.71 1.596-1.768 1.122-2.261 1.598-1.659 1.6.472.002.961-.266 1.088-.596.126-.33.405-.6.618-.6.214 0 2.077-1.035 4.141-2.3s4.819-2.84 6.124-3.5c1.305-.66 2.432-1.335 2.505-1.5.074-.165.563-.3 1.088-.3.643 0 .885-.178.744-.547-.116-.302.114-.666.512-.81 1.056-.383 3.743-1.907 5.19-2.943.691-.495 1.355-.9 1.475-.9.12 0 1.262-.63 2.538-1.399 1.276-.769 2.629-1.399 3.007-1.4.474-.001.609-.206.435-.66-.204-.533-.055-.622.776-.463.705.135.97.043.841-.292-.152-.396 3.812-3.017 5.661-3.743.22-.086.933-.531 1.584-.987.726-.509 1.647-.781 2.381-.704 1.066.112 1.138.054.657-.526-.461-.555-.436-.728.172-1.172.671-.491.673-.555.031-1.088a52.289 52.289 0 0 1-1.414-1.227c-.403-.363-1.103-.778-1.557-.922-1.342-.426-6.454-3.49-6.454-3.869 0-.191-.27-.348-.6-.348-.33 0-.6-.27-.6-.6 0-.397-.397-.6-1.176-.6-.647 0-1.274-.157-1.393-.349-.226-.367-4.304-2.451-4.794-2.451-.157 0-.173.18-.036.401M256 111.275c-1.65.875-3.06 1.756-3.133 1.958-.074.202-.389.367-.7.367-.312 0-.567.177-.567.392 0 .216-.45.506-1 .644s-1 .39-1 .561c0 .17-.315.415-.7.545-.385.129-1.056.465-1.49.746-1.929 1.249-5.041 3.112-5.198 3.112-.094 0-1.216.63-2.492 1.399s-2.629 1.399-3.007 1.4c-.447.001-.607.211-.458.601.16.416-.027.6-.612.6-.464 0-.843.172-.843.381 0 .21-.675.698-1.5 1.085s-1.719.916-1.986 1.176c-.268.261-1.348.88-2.4 1.377-1.053.497-2.184 1.126-2.514 1.398-.33.271-1.545.982-2.7 1.58-1.155.598-2.1 1.236-2.1 1.418 0 .182-.405.457-.9.612-.495.154-.99.392-1.1.527-.11.135-.836.569-1.614.963-2.701 1.369-2.555 4.269.214 4.269.64 0 .54-.166-.5-.832-1.87-1.197-1.359-1.993 2.693-4.197.766-.416 1.634-.982 1.928-1.257.295-.275.793-.5 1.108-.5.314 0 .572-.135.574-.3.002-.165.407-.497.9-.737 1.586-.774 3.691-1.956 3.897-2.191.11-.125 2.898-1.835 6.196-3.8a1513.15 1513.15 0 0 0 6.646-3.972c.357-.22 1.349-.807 2.204-1.304a87.02 87.02 0 0 0 2.331-1.4c1.78-1.137 4.923-2.976 6.323-3.701.825-.427 1.5-.916 1.5-1.086 0-.17.184-.309.408-.309.224 0 1.121-.45 1.992-1s2.122-1 2.779-1c.899 0 1.139-.149.966-.6-.322-.839-.743-.73-4.145 1.075m4.8-.335c0 .204 4.002 2.66 4.334 2.66.154 0 .943.45 1.752 1 1.715 1.165 1.914 1.207 1.914.4 0-.333-.356-.6-.8-.6-.44 0-.8-.138-.8-.306 0-.321-2.92-1.694-3.603-1.694-.218 0-.397-.151-.397-.336 0-.184-.458-.544-1.019-.8-1.064-.484-1.381-.559-1.381-.324m8.903 4.588c-.471.299.735 1.087 7.676 5.016 4.765 2.696 5.421 3.022 5.421 2.694 0-.476-1.834-1.638-2.586-1.638-.338 0-.614-.18-.614-.4 0-.22-.248-.4-.551-.4-.303 0-.775-.27-1.049-.6-.274-.33-.858-.6-1.298-.6-.666 0-.716-.101-.302-.6.421-.507.337-.6-.539-.6-1.212 0-3.772-1.314-4.725-2.426-.751-.876-.755-.877-1.433-.446m14.16 7.955c-.89.229-.369.664 2.806 2.336 1.062.559 2.471 1.357 3.131 1.772 1.349.848 3.53 2.081 6.2 3.503.99.528 2.7 1.497 3.8 2.154 1.1.657 2.315 1.296 2.7 1.42.385.124.7.384.7.579 0 .194.227.353.505.353s1.454.639 2.613 1.419l2.107 1.419-.264-1.119c-.361-1.528-2.588-2.876-5.032-3.044-.368-.026-.583-.188-.476-.361.107-.173-.286-.314-.872-.314-.784 0-1.006-.159-.836-.6.167-.435-.046-.6-.775-.6-.553 0-1.492-.455-2.087-1.01-.596-.556-1.777-1.22-2.625-1.476-.848-.256-1.632-.701-1.742-.99-.111-.288-.506-.524-.877-.524-.372 0-1.658-.625-2.858-1.39-1.199-.764-2.496-1.394-2.881-1.4-.385-.005-.7-.169-.7-.363 0-.195-.361-.448-.802-.563-.534-.14-.72-.422-.557-.847.249-.65.119-.689-1.178-.354m-91.063 1.348c0 .481 2.332 1.646 2.988 1.493.295-.068-.258-.51-1.226-.982-.969-.472-1.762-.702-1.762-.511m27 14.21c.44.338.755.783.7.987-.055.205.245.372.668.372.867 0 3.226 1.242 3.229 1.7.002.165.363.3.803.3.44 0 .8.18.8.4 0 .22.306.4.68.4.935 0 .369-.458-2.48-2.008-1.32-.718-2.878-1.64-3.462-2.049-1.273-.891-2.078-.979-.938-.102m88.606 1.083c-.004.915.154 1.424.394 1.276.506-.312.506-1.418 0-2.2-.288-.445-.389-.207-.394.924m-.105 62.315l-.101 59.639-1.6.896c-1.767.99-5.841 3.264-7.4 4.131-.55.306-1.9 1.071-3 1.7s-2.63 1.461-3.4 1.848c-.77.388-1.49.824-1.6.969-.11.145-2.18 1.302-4.6 2.571-2.42 1.268-4.85 2.618-5.4 3-.985.683-3.873 2.297-7.8 4.357-1.1.578-2.09 1.14-2.2 1.25-.11.11-.83.517-1.6.904-.77.387-1.94 1.032-2.6 1.434-1.159.705-4.052 2.329-7.8 4.377-.99.541-1.971 1.142-2.18 1.334-.209.193-.704.351-1.1.351-.396 0-.72.177-.72.392 0 .216-.45.506-1 .644s-1 .39-1 .561c0 .17-.315.411-.7.535-.385.124-1.96.96-3.5 1.858-1.54.898-3.16 1.809-3.6 2.026-.44.217-1.34.722-2 1.123-2.845 1.727-5.069 2.861-5.614 2.861-.322 0-.586.148-.586.329 0 .181-.765.733-1.7 1.226-2.68 1.413-6.372 3.462-7.9 4.384a38.05 38.05 0 0 1-2.9 1.548c-.825.386-1.5.839-1.5 1.007 0 .168-.225.308-.5.31-.275.002-1.58.678-2.9 1.503a85.246 85.246 0 0 1-5.124 2.896c-1.498.768-3.03 1.577-3.404 1.797-4.863 2.858-7.308 4.2-7.653 4.2a.41.41 0 0 0-.419.4c0 .22-.184.4-.408.4-.224 0-1.121.45-1.992 1-1.637 1.033-3.754 1.321-4.217.573-.145-.235-.525-.327-.844-.205-.319.123-.489.074-.377-.107.192-.309-.334-.643-4.962-3.156-.99-.538-2.07-1.186-2.4-1.441-.33-.255-.96-.66-1.4-.901-3.914-2.135-5.63-3.12-5.8-3.327-.11-.134-.911-.602-1.779-1.04-.869-.438-2.939-1.62-4.6-2.628a362.714 362.714 0 0 0-7.194-4.2c-2.295-1.302-4.815-2.772-5.6-3.265-.785-.494-1.697-1.025-2.027-1.18-.703-.331-8.321-4.743-9.2-5.329a9.118 9.118 0 0 0-1.2-.656c-.33-.141-1.14-.638-1.8-1.105-1.969-1.393-3.291-1.946-3.862-1.616-.296.171-.412.171-.257 0 .154-.172.032-.561-.271-.865-.634-.633-1.581-.753-1.21-.152.136.22.037.4-.219.4-.257 0-.361-.275-.232-.612.154-.4-.109-.769-.757-1.064-.546-.249-.992-.604-.992-.788 0-.185-.36-.336-.8-.336-.44 0-.8-.18-.8-.4 0-.22-.206-.4-.457-.4s-1.597-.72-2.99-1.6c-1.393-.88-2.636-1.6-2.762-1.6-.126 0-1.166-.596-2.31-1.324-1.145-.729-2.351-1.45-2.681-1.604-.33-.153-1.14-.608-1.8-1.01-.66-.402-2.28-1.325-3.6-2.053-1.32-.727-2.85-1.631-3.4-2.009-.55-.378-2.08-1.282-3.4-2.009a158.917 158.917 0 0 1-3.461-1.957c-2.855-1.707-6.582-3.851-6.939-3.991-.22-.086-.937-.536-1.594-1-.657-.464-1.557-1.036-2-1.271-3.917-2.08-8.393-4.713-8.525-5.015-.167-.382-1.681.059-1.681.49 0 .194.204.353.454.353s.869.448 1.377.995c.507.548 1.743 1.215 2.745 1.483 1.042.279 1.824.723 1.824 1.037 0 .41.326.477 1.292.265 1.16-.255 1.237-.218.755.363-.593.715.286 1.393 1.129.872.227-.141.81.113 1.294.565.485.451 1.213.82 1.618.82s.841.27.967.6c.127.33.681.6 1.231.6.724 0 .936.165.769.6-.155.406.021.6.545.6.5 0 .699.199.56.56-.31.807.48 1.147 1.372.59.635-.397.921-.332 1.687.382.507.472 1.25.963 1.652 1.09.995.316.93 1.124-.071.862-.439-.115-.892-.059-1.005.125-.265.428 1.266.924 1.811.587.228-.14.364-.017.304.274-.081.388.4.513 1.79.465 1.045-.035 1.9.075 1.9.245 0 .612 4.848 3.62 5.836 3.62.572 0 .904.174.764.4-.136.22-.057.4.176.4.233 0 .424.27.424.6 0 .33.191.6.424.6.233 0 .322-.163.199-.363-.123-.199.206-.159.732.089.869.41.896.5.3.991-.568.468-.453.512.866.333 1.101-.149 1.582-.047 1.743.372.122.318.453.578.736.578.284 0 1.093.54 1.8 1.2.707.66 1.703 1.2 2.215 1.2.55 0 1.026.299 1.163.731.128.402 1.175 1.157 2.327 1.678 2.215 1.001 2.365 1.102 4.411 2.991 1.743 1.609 2.984 2.285 3.289 1.792.133-.216.637-.378 1.119-.36.482.017.651.122.376.233-.706.285-.622.935.12.935.713 0 9.703 4.352 10.007 4.844.111.18-.164.693-.612 1.141-1.475 1.475-.254 1.777 1.522.377.916-.722 1.081-.75 1.192-.2.071.351.359.638.638.638.28 0 .852.379 1.271.843.774.857 4.274 2.825 5.355 3.011.326.056.659.303.741.547.166.499 4.207 2.382 5.216 2.431.409.019.466.105.153.232-.971.392.28 1.7 2.204 2.303 2.626.823 5.163 1.794 4.744 1.815-.79.04.699 1.187 1.877 1.446 1.228.269 4.255 2.149 7.752 4.814.924.704 2.589 1.582 3.7 1.951 1.111.369 2.02.906 2.02 1.193 0 2.158 4.587 2.502 8.6.645 3.661-1.694 4.227-1.932 5.3-2.233.495-.138.9-.407.9-.596 0-.618 1.239-1.602 2.015-1.602.417 0 1.421-.663 2.231-1.473 1.317-1.317 1.709-1.48 3.713-1.543 3.029-.097 2.964-.072 2.711-1.036-.212-.814.604-2.141 1.046-1.699.116.117 1.916-.612 4-1.619 2.083-1.006 4.17-1.83 4.636-1.83.466 0 .848-.18.848-.4 0-.22.285-.4.633-.4.349 0 1.26-.645 2.025-1.433.765-.788 2.231-1.719 3.258-2.068 2.241-.764 4.752-2.448 5.005-3.357.1-.362.879-.962 1.731-1.334.851-.371 2.133-.927 2.848-1.235.715-.308 1.3-.728 1.3-.933 0-.206.807-.682 1.794-1.059.987-.377 1.999-.932 2.249-1.233.25-.301.937-.548 1.526-.548s1.248-.177 1.464-.393c.216-.216 1.827-.906 3.58-1.534 2.487-.89 3.381-1.427 4.072-2.444 1.049-1.544 4.822-3.914 7.017-4.407.856-.193 1.769-.635 2.028-.983.258-.348 1.19-1.014 2.07-1.48.88-.466 2.14-1.131 2.8-1.478 2.722-1.429 5.408-3.345 5.188-3.701-.129-.209.131-.38.579-.38.447 0 1.403-.359 2.123-.799.721-.439 1.64-.799 2.043-.8.636-.001 4.025-2.398 4.709-3.331.134-.182.989-.431 1.9-.553.98-.131 1.658-.435 1.658-.743 0-.286.405-.643.9-.793.495-.151 1.46-.693 2.145-1.206s1.735-1.055 2.333-1.205c.597-.15 1.179-.515 1.293-.811.113-.295.864-.651 1.668-.789.803-.139 2.351-.683 3.44-1.211 1.088-.527 2.2-.959 2.472-.959.272 0 .871-.528 1.33-1.174l.836-1.174-.107-51.526c-.059-28.339-.066-55.351-.015-60.026.058-5.349-.053-8.5-.3-8.5-.254 0-.428 21.013-.494 59.639M227.6 143.613c0 .226.315.514.7.638 1.174.379 3.3 1.517 3.3 1.765 0 .129.645.488 1.433.797.788.309 1.609.891 1.824 1.294.238.445.659.647 1.074.515.433-.137.957.149 1.432.781.493.656 1.141.997 1.893.997.629 0 1.144.18 1.144.4 0 .22.282.4.627.4.451 0 .554.231.365.825-.241.76-.143.805 1.273.577 1.225-.198 1.392-.158.827.2-.962.607-.434 1.32.757 1.021.695-.174 1.582.156 3.197 1.189 1.23.787 2.516 1.376 2.857 1.309.42-.082.244-.313-.541-.713-.639-.325-2.555-1.45-4.258-2.5-1.702-1.049-3.171-1.908-3.264-1.908-.093 0-1.434-.717-2.98-1.593a485.356 485.356 0 0 0-7.86-4.39c-1.32-.723-2.571-1.473-2.78-1.666-.513-.474-1.02-.443-1.02.062M251.2 157c0 .345.361.6.849.6.709 0 .767.099.351.6-.419.505-.348.59.451.544 1.379-.079 3.149.738 3.149 1.454 0 .418.291.569.9.468.495-.082.675-.072.4.022-1.246.426-.279 1.389 1.047 1.042 1.198-.314.939-.816-.956-1.856-.875-.481-1.651-1.009-1.724-1.174-.074-.165-.376-.3-.672-.3-.296 0-.783-.225-1.082-.5-.601-.552-2.185-1.5-2.508-1.5-.113 0-.205.27-.205.6m-159.333 1.267c-.501.501-.274 1.036.254.599.379-.315.828-.274 1.646.151 1.298.673 1.433.698 1.433.263 0-.591-2.88-1.467-3.333-1.013M96 160.015c.33.221 2.22 1.216 4.2 2.21s3.87 1.962 4.2 2.151c1.081.618 4.869 2.424 5.086 2.424.117 0-.012-.27-.286-.6-.274-.33-.763-.6-1.087-.6-.324 0-1.067-.326-1.651-.724-.584-.398-2.007-1.16-3.162-1.694-1.155-.534-2.1-1.108-2.1-1.276 0-.168-.45-.306-1-.306s-1.001-.135-1.003-.3c-.003-.434-2.344-1.701-3.129-1.694-.579.005-.588.06-.068.409m163.73 1.448c.145.145.04.535-.233.868-.43.523-.328.57.761.355 1.012-.2 1.296-.104 1.452.49.114.438.724.856 1.498 1.026l1.304.286-.235 30.656c-.172 22.324-.366 30.987-.713 31.875-.398 1.013-.363 1.462.204 2.658.729 1.535.939 3.503.457 4.283-.162.261-.076.737.19 1.058.34.41.35.582.034.582-.247 0-.449-.18-.449-.4 0-.716-1.13-.422-2.278.593-.948.838-1.029 1.055-.522 1.394.523.349.517.402-.051.407-.358.003-.883.285-1.166.626-.595.718-2.583.625-2.583-.12 0-.275-.158-.515-.35-.533-.466-.044-1.857 2.099-1.616 2.489.104.168-.581.522-1.522.787-.942.265-2.216.994-2.832 1.619-.616.626-1.369 1.138-1.672 1.138-.303 0-.839.288-1.191.64-.419.419-.984.555-1.633.392-1.277-.321-5.976 2.573-5.364 3.302.213.253.266.372.119.265-.147-.107-.519.165-.826.604-.32.457-1.018.8-1.636.803-1.123.006-1.673.267-4.412 2.094-.907.605-1.923 1.1-2.257 1.1-.334 0-.611.225-.614.5-.005.357-.107.341-.36-.058-.466-.737-1.706-.246-1.553.614.085.473-.462.896-1.881 1.457-3.925 1.55-4.2 1.687-4.2 2.098 0 .721-2.174 1.777-2.818 1.369-1.164-.736-1.982-.438-1.982.722 0 1.75-2.095 2.524-3.431 1.268-.696-.653-1.104-.795-1.408-.491-.304.304-.18.658.426 1.223l.854.796-1.585.826c-.871.454-2.352 1.033-3.29 1.285-.937.253-2.038.883-2.446 1.401-.407.519-1.141 1.068-1.63 1.22-.49.153-.98.39-1.09.527-1.935 2.411-8.098 2.949-9.413.822-.147-.239-.505-.343-.794-.232-.29.112-.626-.056-.747-.372-.122-.316-.573-.575-1.004-.575-.431 0-1.138-.45-1.571-1-.432-.55-1.12-1-1.529-1-.9.001-6.621-2.813-7.041-3.463-.165-.254-.632-.375-1.04-.269-.543.142-.914-.173-1.394-1.184-.554-1.168-.908-1.411-2.328-1.601-.921-.124-1.834-.509-2.028-.856-.253-.453-.659-.555-1.432-.363-.967.241-1.023.201-.536-.391.637-.773-.679-1.473-2.769-1.473-.646 0-1.174-.15-1.174-.333 0-.48-3.793-2.867-4.556-2.867-.354 0-.644-.196-.644-.436 0-.852-1.828-1.94-3.7-2.202-1.045-.146-1.9-.401-1.9-.567 0-.166-.361-.396-.802-.511-.533-.14-.72-.422-.557-.845.202-.527.014-.597-1.099-.411-1.1.185-1.214.144-.634-.226.958-.61.436-1.325-.749-1.028-.925.233-3.733-1.16-4.349-2.158-.141-.229-.766-.416-1.387-.416-.811 0-1.192-.237-1.349-.84-.136-.517-.402-.728-.692-.549-.259.16-.586.124-.727-.081-.14-.204-.93-.686-1.755-1.07-.825-.383-1.5-.971-1.5-1.306 0-.438-.238-.532-.85-.338-.497.158-.97.075-1.14-.2-.16-.258-.632-.52-1.05-.583-.468-.069-.76-.434-.76-.947 0-1.436-1.635-2.606-3.226-2.308-1.376.259-1.933-.278-.757-.729.484-.186.525-.41.19-1.035-.541-1.012-.931-51.49-.4-51.818.688-.425-1.079-2.794-2.64-3.542-.862-.412-1.837-.903-2.167-1.091-.33-.187-1.23-.631-2-.985-.77-.355-1.67-.805-2-1-.33-.196-1.23-.645-2-.999-3.043-1.398-5.81-2.791-6-3.02-.11-.132-.92-.552-1.8-.933s-1.87-.858-2.2-1.06c-.33-.202-1.05-.559-1.6-.791a49.772 49.772 0 0 1-2.165-1.001c-.641-.318-1.233-.509-1.317-.425-.193.192 2.596 1.851 3.113 1.851.212 0 1.098.45 1.969 1s1.757 1 1.969 1c.212 0 1.024.377 1.805.837.78.461 4.706 2.488 8.723 4.504l7.303 3.666.2 28.17.2 28.17 1.8 1.11c.99.611 2.7 1.572 3.8 2.136 1.1.565 2.72 1.463 3.6 1.996 1.912 1.159 2.63 1.559 6.8 3.789 1.76.941 3.38 1.847 3.6 2.014.22.166 1.48.895 2.8 1.62 1.32.725 2.94 1.62 3.6 1.988.66.368 2.28 1.268 3.6 2 1.32.732 2.94 1.632 3.6 2 .66.368 2.28 1.268 3.6 2 1.32.732 2.94 1.632 3.6 2 .66.368 2.28 1.268 3.6 2a4276.113 4276.113 0 0 1 6.727 3.741c1.06.59 2.14.951 2.4.802.26-.149.347-.131.192.04-.411.457.373 1.059 3.284 2.521 1.429.717 3.695 1.921 5.037 2.676l2.44 1.372 2.56-1.276c1.408-.702 2.65-1.38 2.76-1.508.11-.128.772-.481 1.471-.785.699-.304 1.166-.722 1.038-.93-.128-.207-.024-.247.232-.09.255.158.958-.058 1.562-.481.603-.423 1.817-1.1 2.697-1.505.88-.404 1.69-.844 1.8-.977.11-.132 1.19-.749 2.4-1.37a188.12 188.12 0 0 0 4.4-2.351c1.21-.671 2.867-1.578 3.683-2.015.816-.437 1.373-.973 1.238-1.191-.134-.218-.05-.276.188-.129.237.146 1.39-.274 2.561-.936 1.172-.661 2.94-1.608 3.93-2.105.99-.496 1.89-.994 2-1.106.11-.113.92-.563 1.8-1.001.88-.438 1.69-.886 1.8-.996.11-.11 1.278-.74 2.595-1.4a71.195 71.195 0 0 0 4.473-2.478c1.143-.702 2.855-1.645 3.805-2.096.95-.45 2.627-1.353 3.727-2.007a89.75 89.75 0 0 1 3.6-2.022c4.214-2.194 7.861-4.272 8.581-4.888.781-.669.794-1.264.806-36.164.012-37.47.036-36.945-1.657-36.945-.19 0-1.059-.45-1.93-1-1.492-.942-2.454-1.321-1.87-.737M91.383 240.8c0 9.35.053 13.175.117 8.5.064-4.675.064-12.325 0-17-.064-4.675-.117-.85-.117 8.5m133.261 4.118c-.894.654-.724 2.421.252 2.606 1.035.198 1.846-1.753 1.057-2.543-.492-.492-.708-.502-1.309-.063M174 246c0 .533.267.8.8.8.812 0 .929-.758.2-1.294-.679-.499-1-.34-1 .494m-3.4 4.386c-.766.283-.76.308.13.591 1.022.325 1.632.01 1.043-.538-.205-.192-.733-.215-1.173-.053m57.5-.121c-.743.3-.607.85.333 1.353.888.475 2.587-.538 2.134-1.271-.228-.37-1.638-.416-2.467-.082m88.963 5.605c-.386.386-.309 2.237.12 2.916.347.55 1.217-.853 1.217-1.963 0-.505-1.042-1.248-1.337-.953m-113.765 3.03c.253.769 1.902.88 1.902.128 0-.409-.361-.628-1.033-.628-.648 0-.972.187-.869.5m-8.298.3c-.136.22.134.4.6.4.466 0 .736-.18.6-.4-.136-.22-.406-.4-.6-.4-.194 0-.464.18-.6.4m-104.162.7c.295.385.587.775.649.867.062.091.113-.224.113-.7 0-.533-.25-.867-.649-.867-.555 0-.572.101-.113.7m225.69 7.7c0 1.43.073 2.015.161 1.3.089-.715.089-1.885 0-2.6-.088-.715-.161-.13-.161 1.3m-6.637 2.453c-1.046.585-.854 1.547.309 1.547.723 0 1-.215 1-.776 0-.998-.44-1.257-1.309-.771M108.4 274.4c0 .22.371.4.824.4.453 0 .712-.18.576-.4-.136-.22-.507-.4-.824-.4-.317 0-.576.18-.576.4m7.348 8.192c-.136.353-.135.755.003.892.137.137.267-.096.289-.517.031-.597.111-.546.36.233.298.931.323.939.36.124.049-1.083-.676-1.608-1.012-.732m167.151.09c-2.319.447-1.873 2.918.526 2.918 1.588 0 1.921-.425 1.573-2.01-.26-1.185-.384-1.238-2.099-.908m-6.812 4.253c-1.091.606-.769 1.065.747 1.065 1.751 0 2.471-.391 1.927-1.047-.564-.679-1.471-.686-2.674-.018M130.4 292.4c0 .22.439.4.976.4.537 0 1.088-.18 1.224-.4.144-.233-.263-.4-.976-.4-.673 0-1.224.18-1.224.4m136.8 1.6c0 .44.18.8.4.8.22 0 .4-.36.4-.8 0-.44-.18-.8-.4-.8-.22 0-.4.36-.4.8m-16.113 5.446c-.136.136-.841.368-1.567.517-1.564.32-1.784 1.384-.32 1.551.665.077 1.444-.292 2.325-1.1 1.082-.992 1.186-1.214.566-1.214-.417 0-.869.111-1.004.246m-90.22 7.395c-.514.197-.863.572-.775.834.245.735.865.792 1.724.157 1.036-.764.344-1.486-.949-.991m-.6 6.626c-.147.146-.267.686-.267 1.2 0 1.029 1.769 1.391 2.113.433.41-1.145-1.046-2.433-1.846-1.633m8.779 1.633a15.73 15.73 0 0 1-.48 1.2c-.159.342.156.5 1.001.5 1.103 0 1.233-.126 1.233-1.2 0-1.365-1.316-1.74-1.754-.5m7.514.9c.126.55.232 1.135.235 1.3.003.165.288.3.633.3.407 0 .583-.287.5-.816-.07-.449-.288-.793-.483-.766-.196.028-.526-.19-.735-.484-.263-.371-.309-.228-.15.466m41.84.757c0 .904 1.884 1.522 2.558.838.324-.329.234-.602-.334-1.022-1.11-.819-2.224-.727-2.224.184m-44.4 2.176c0 .753.385 1.048 1.039.797.851-.327.671-1.33-.239-1.33-.44 0-.8.24-.8.533m6.3-.257c-.823.215-.897.667-.2 1.229.591.476 1.907.051 2.663-.86.556-.671-.63-.848-2.463-.369m25.61 6.583c-.379.396-1.189.828-1.8.959-2.935.628-3.655 1.46-1.942 2.24.8.365 1.177.293 2.162-.408.656-.468 1.474-.85 1.818-.85.6 0 1.452-1.133 1.452-1.931 0-.725-1.001-.731-1.69-.01m.19 8.441c.092.275.407.5.7.5a.788.788 0 0 0 .7-.5c.099-.297-.184-.5-.7-.5s-.799.203-.7.5" fill="#4a94d2"/><path d="M196.8 77.108c0 .264-.987.882-5.67 3.546-1.025.583-1.789 1.346-1.348 1.346.188 0 .932-.45 1.654-1 .721-.55 1.421-1 1.557-1 .135 0 1.23-.63 2.434-1.4 1.204-.77 2.36-1.4 2.569-1.4.424 0 .545.066 10.604 5.803 3.96 2.258 7.92 4.507 8.8 4.997.88.49 2.398 1.357 3.374 1.927.975.569 1.65.836 1.5.592-.278-.448-1.93-1.426-9.674-5.719-4.122-2.285-4.727-2.635-7.507-4.34-1.489-.913-2.797-1.66-2.908-1.66-.11 0-.914-.45-1.785-1-1.505-.95-3.6-1.353-3.6-.692m-13.253 8.223c-2.975 1.832-5.666 3.451-5.978 3.599-.313.147-1.649.974-2.969 1.837-1.32.863-3.165 1.976-4.1 2.472-.935.497-1.7 1.051-1.7 1.232 0 .181-.181.329-.403.329-.222 0-2.517 1.309-5.1 2.908-2.583 1.599-5.186 3.157-5.784 3.461-1.752.89-2.842 2.227-2.226 2.731.69.565 4.286 2.575 7.713 4.311 1.54.78 3.34 1.739 4 2.131.66.392 2.55 1.444 4.2 2.338 1.65.894 3.99 2.166 5.2 2.827a729.074 729.074 0 0 0 10 5.387c1.65.87 3.18 1.723 3.4 1.896.69.542 6.752 3.61 7.133 3.61.199 0 1.466-.674 2.815-1.497a184.933 184.933 0 0 1 3.866-2.3c3.407-1.935 4.78-2.822 4.783-3.09.003-.31-3.072 1.424-8.184 4.613l-3.187 1.989-2.177-1.14c-1.197-.627-5.433-2.917-9.413-5.088-3.98-2.172-8.946-4.861-11.036-5.977a412.123 412.123 0 0 1-5.6-3.037c-.99-.555-3.15-1.729-4.8-2.608-7.241-3.86-8.519-4.693-8.098-5.278.271-.377 10.72-6.987 11.044-6.987.21 0 20.735-12.661 21.654-13.358 1.87-1.417.004-.425-5.053 2.689m39.253 5.644c0 .152 1.508 1.032 9 5.25.88.495 2.656 1.54 3.947 2.32 1.291.781 2.551 1.491 2.8 1.579.503.177-.808 1.876-1.447 1.876-.207 0-.942.405-1.633.9-.69.495-1.618 1.096-2.061 1.335-.443.239-4.046 2.382-8.006 4.762-3.96 2.38-7.56 4.527-8 4.771-3.099 1.718-8.591 5.174-8.449 5.317.096.095.865-.25 1.711-.767a59.77 59.77 0 0 1 3.038-1.72c.825-.429 1.5-.919 1.5-1.089 0-.17.182-.309.404-.309.223 0 1.841-.9 3.596-2 1.755-1.1 3.288-2 3.407-2 .181 0 1.781-.966 8.593-5.187.33-.204 1.32-.761 2.2-1.236.88-.475 1.69-.98 1.8-1.121.11-.141.83-.606 1.6-1.034 2.843-1.578 3.017-2.42.737-3.57-1.353-.682-2.121-1.13-3.935-2.295-.869-.558-3.218-1.889-6.802-3.854a55.7 55.7 0 0 1-2.2-1.296c-1.201-.749-1.8-.96-1.8-.632m33.6 20.825c-.77.525-1.625.964-1.9.977-.275.013-.5.162-.5.332s-.675.659-1.5 1.086c-1.4.725-4.543 2.564-6.323 3.701-.428.273-1.407.863-2.177 1.312-.77.449-2.213 1.306-3.206 1.904-.993.598-4.095 2.438-6.893 4.088s-5.09 3.15-5.094 3.333c-.004.183.578-.025 1.293-.463 5.049-3.086 16.852-10.07 17.019-10.07.113 0 .795-.45 1.517-1 .721-.55 1.406-1 1.522-1 .116 0 1.965-1.08 4.108-2.4 4.213-2.595 5.02-2.786 7.022-1.665.722.404 2.392 1.328 3.712 2.053 1.32.725 2.58 1.452 2.8 1.616.22.164 3.37 1.968 7 4.009l7.928 4.458c.731.411 3.611 2.063 6.4 3.672a841.788 841.788 0 0 0 7.272 4.151c1.21.675 3.37 1.904 4.8 2.731 1.43.827 3.545 2.028 4.7 2.669l2.1 1.166v123.07l-3.1 1.787c-3.629 2.091-5.121 2.928-12.1 6.788-.77.426-1.94 1.092-2.6 1.481-.66.389-2.19 1.248-3.4 1.909-5.382 2.94-19.009 10.578-19.385 10.866-.228.175-1.765 1.043-3.415 1.928-6.905 3.706-8.518 4.672-8.058 4.825.267.089.704-.011.971-.223.268-.211 1.297-.828 2.287-1.372 4.111-2.256 6.669-3.693 7.8-4.381.66-.402 1.83-1.047 2.6-1.434s1.49-.794 1.6-.904c.11-.11 1.1-.672 2.2-1.25 3.927-2.06 6.815-3.674 7.8-4.357.55-.382 2.98-1.732 5.4-3 2.42-1.269 4.49-2.426 4.6-2.571.11-.145.83-.581 1.6-.969.77-.387 2.3-1.219 3.4-1.848s2.45-1.394 3-1.7c1.559-.868 5.633-3.141 7.4-4.131l1.6-.896.101-61.827.102-61.828-2.096-1.412c-1.153-.776-2.324-1.411-2.602-1.411s-.505-.159-.505-.353c0-.195-.315-.455-.7-.579-.385-.124-1.6-.763-2.7-1.42a109.62 109.62 0 0 0-3.8-2.154c-2.785-1.484-4.886-2.676-6.2-3.517-.66-.423-1.65-.989-2.2-1.259-.55-.269-1.63-.873-2.4-1.341-.77-.468-2.48-1.449-3.8-2.18l-4.2-2.326a85.74 85.74 0 0 1-3.2-1.874c-1.247-.78-3.11-1.819-8.637-4.819a70.676 70.676 0 0 1-3.292-1.933c-2.045-1.291-3.822-1.305-5.671-.045m-30.086 18c-.809.55-1.661 1-1.893 1a.412.412 0 0 0-.421.4c0 .22-.257.4-.571.4-.315 0-.81.225-1.1.501-.291.275-1.217.86-2.057 1.3-.841.439-2.101 1.29-2.8 1.89l-1.272 1.091 1 .802c.55.442 1.36.919 1.8 1.062.44.142 1.25.57 1.8.95s2.08 1.286 3.4 2.013c1.32.727 2.94 1.623 3.6 1.991.66.368 2.28 1.268 3.6 2a784.168 784.168 0 0 1 7.86 4.407c1.546.876 2.894 1.593 2.995 1.593.101 0 1.21.657 2.464 1.461 2.437 1.561 7.941 4.539 8.389 4.539.438 0-1.114-.985-4.108-2.606a291.95 291.95 0 0 1-6.4-3.613c-4.345-2.53-5.891-3.396-9.8-5.493-1.65-.885-3.18-1.738-3.4-1.895-.22-.157-1.3-.781-2.4-1.386-5.265-2.896-9.799-5.571-9.794-5.778.016-.596.784-1.227 2.994-2.457 3.506-1.953 8.465-5.157 7.993-5.165-.224-.004-1.07.443-1.879.993m27.286 27.754c0 .237.45.544 1 .682s1 .39 1 .561c0 .17.315.411.7.534.385.124 1.69.793 2.9 1.487 1.21.695 2.74 1.558 3.4 1.918 2.857 1.56 2.6-2.155 2.587 37.34-.012 34.969-.025 35.564-.806 36.234-.72.615-4.367 2.693-8.581 4.887a89.75 89.75 0 0 0-3.6 2.022c-1.1.654-2.777 1.557-3.727 2.007-.95.451-2.662 1.394-3.805 2.096a71.195 71.195 0 0 1-4.473 2.478c-1.317.66-2.485 1.29-2.595 1.4-.11.11-.92.558-1.8.996-.88.438-1.69.888-1.8 1.001-.11.112-1.01.61-2 1.106-.99.497-2.79 1.461-4 2.144-1.21.682-3.19 1.79-4.4 2.462-1.21.672-2.767 1.539-3.459 1.926-.692.388-2.402 1.294-3.8 2.014-1.398.719-2.631 1.408-2.741 1.529-.11.122-1.145.717-2.3 1.322l-4.2 2.2c-1.155.605-2.19 1.19-2.3 1.3-.11.11-1.353.775-2.763 1.478l-2.563 1.277-1.837-1.028c-5.084-2.846-7.706-4.192-7.862-4.035-.096.095.321.425.926.732.604.307 1.729.94 2.499 1.408.77.467 2.523 1.433 3.896 2.147l2.495 1.297 3.305-1.694a237.433 237.433 0 0 0 6.304-3.375c1.65-.925 4.221-2.346 5.712-3.158a424.136 424.136 0 0 0 4.2-2.314c.819-.461 2.838-1.566 4.488-2.456 1.65-.89 3.671-2.037 4.492-2.549.821-.511 1.572-.93 1.669-.93.098 0 2.268-1.17 4.824-2.6 2.556-1.43 4.721-2.6 4.813-2.6.092 0 1.03-.508 2.084-1.13 1.055-.621 3.451-1.951 5.324-2.955a464.268 464.268 0 0 0 8.682-4.767c.708-.396 2.508-1.379 4-2.183a287.09 287.09 0 0 0 4.412-2.431l1.7-.968v-36.134c0-28.429-.107-36.218-.5-36.53-.275-.218-1.58-.989-2.9-1.714-3.615-1.986-5.032-2.781-6.9-3.872-.935-.545-1.7-.798-1.7-.562m-161.536 1.342c-.527.527-.683 102.174-.158 102.923.162.231 1.104.886 2.094 1.455 2.107 1.213 5.456 3.088 6.606 3.698.443.235 1.343.807 2 1.271.657.464 1.374.914 1.594 1 .357.14 4.084 2.284 6.939 3.991.584.349 2.141 1.229 3.461 1.957 1.32.727 2.85 1.631 3.4 2.009.55.378 2.08 1.282 3.4 2.009 1.32.728 2.94 1.651 3.6 2.053.66.402 1.47.857 1.8 1.01.33.154 1.536.875 2.681 1.604 1.144.728 2.184 1.324 2.31 1.324.126 0 1.369.72 2.762 1.6 1.393.88 2.724 1.6 2.957 1.6.233 0 .492.207.577.46.084.253.398.378.697.279.425-.142-6.314-4.345-8.181-5.103-.222-.09-1.796-1.035-3.499-2.1-1.702-1.065-3.191-1.936-3.308-1.936-.116 0-.94-.46-1.83-1.021a81.12 81.12 0 0 0-2.892-1.738c-1.184-.666-10.377-5.985-18.274-10.575a513.54 513.54 0 0 0-4.8-2.761c-.77-.431-1.985-1.141-2.7-1.577l-1.3-.793v-51.144c0-28.129.138-51.229.307-51.334.169-.104 2.977 1.157 6.24 2.803 3.263 1.646 5.829 2.824 5.701 2.618-.171-.276-7.521-4.075-11.484-5.935-.13-.061-.445.098-.7.353m12.769 6.068c.092.09 5.567 2.909 12.167 6.264 6.6 3.355 13.26 6.753 14.8 7.551l2.8 1.452.2 28.167.2 28.168 2.293 1.289a540.51 540.51 0 0 0 4.8 2.657c1.379.752 4.108 2.294 6.064 3.427 1.957 1.134 3.623 2.061 3.703 2.061.08 0 2.169 1.148 4.643 2.552 5.94 3.371 6.981 3.953 10.185 5.697 1.491.812 4.062 2.236 5.712 3.165a1056.09 1056.09 0 0 0 8.2 4.583c1.32.73 2.76 1.547 3.2 1.816 2.282 1.394 5.4 2.921 5.4 2.644 0-.173-.765-.708-1.7-1.189-.935-.481-2.69-1.432-3.9-2.115-1.21-.682-3.19-1.79-4.4-2.462l-3.4-1.891a2379.5 2379.5 0 0 0-3.6-2 2379.5 2379.5 0 0 1-3.6-2 2379.5 2379.5 0 0 0-3.6-2 2379.5 2379.5 0 0 1-3.6-2c-.66-.368-2.28-1.263-3.6-1.988-1.32-.725-2.58-1.454-2.8-1.62-.22-.167-1.84-1.073-3.6-2.014-4.17-2.23-4.888-2.63-6.8-3.789-.88-.533-2.5-1.431-3.6-1.996a66.773 66.773 0 0 1-3.8-2.136l-1.8-1.11-.2-28.166-.2-28.166-7.605-3.829c-4.183-2.106-8.233-4.161-9-4.567-1.971-1.042-3.694-1.915-4.395-2.227a34.267 34.267 0 0 1-1.572-.778c-6.112-3.212-8.416-4.259-7.595-3.45M139.6 289.516c0 .166.675.656 1.5 1.089.825.433 1.59.897 1.7 1.032.11.135.92.576 1.8.981.88.404 2.14 1.107 2.8 1.56 1.644 1.129 2.689 1.776 3.4 2.104.33.153 2.31 1.286 4.4 2.518 2.09 1.232 4.07 2.367 4.4 2.523.33.155 1.242.686 2.027 1.18.785.493 3.305 1.963 5.6 3.265a362.714 362.714 0 0 1 7.194 4.2c1.661 1.008 3.731 2.19 4.6 2.628.868.438 1.669.906 1.779 1.04.17.207 1.886 1.192 5.8 3.327.44.241 1.07.646 1.4.901.33.255 1.41.9 2.4 1.433 3.591 1.935 5.808 3.209 6.18 3.552.706.652 2.627.356 4.22-.649.871-.55 1.768-1 1.992-1 .224 0 .408-.18.408-.4 0-.22.188-.4.419-.4.345 0 2.79-1.342 7.653-4.2.374-.22 1.906-1.029 3.404-1.797a85.246 85.246 0 0 0 5.124-2.896c1.32-.825 2.625-1.501 2.9-1.503.275-.002.5-.142.5-.31s.675-.621 1.5-1.007a38.05 38.05 0 0 0 2.9-1.548c1.528-.922 5.22-2.971 7.9-4.384.935-.493 1.7-1.042 1.7-1.219 0-.299-1.246.309-4.2 2.05a146.7 146.7 0 0 1-3.4 1.904c-1.21.658-7.6 4.225-14.2 7.926-19.735 11.066-16.812 10.136-22 7.002-1.1-.664-2.27-1.334-2.6-1.488-.33-.155-1.536-.877-2.681-1.606-1.144-.728-2.157-1.324-2.25-1.324-.092 0-3.994-2.25-8.669-5-4.675-2.75-8.577-5-8.669-5-.093 0-1.154-.63-2.358-1.4-1.204-.77-2.258-1.4-2.343-1.4-.084 0-2.888-1.62-6.23-3.6-3.342-1.98-6.153-3.6-6.246-3.6-.093 0-.931-.485-1.862-1.077s-2.862-1.732-4.292-2.533a532.49 532.49 0 0 1-4.1-2.316c-.825-.473-1.5-.724-1.5-.558m111.235 4.092c-2.291 1.315-4.217 2.392-4.282 2.392-.064 0-1.614.855-3.445 1.9-1.83 1.045-3.835 2.164-4.455 2.488-.62.323-.952.646-.737.717.361.121 2.542-.98 5.484-2.766.66-.401 1.56-.906 2-1.123.44-.217 2.06-1.128 3.6-2.026 1.54-.898 3.115-1.734 3.5-1.858.385-.124.7-.365.7-.535 0-.171.45-.423 1-.561.55-.138 1-.428 1-.644 0-.527.312-.671-4.365 2.016" fill="#72b3e2"/><path d="M196.4 77.965c-.55.407-1.631 1.076-2.402 1.487a29.273 29.273 0 0 0-2.661 1.648c-.693.495-1.375.9-1.515.9-.14 0-.742.339-1.338.754-1.324.921-19.732 12.25-21.684 13.345-2.994 1.68-10.615 6.498-10.898 6.889-.421.583.859 1.418 8.098 5.277 1.65.879 3.81 2.053 4.8 2.608.99.555 3.51 1.922 5.6 3.037 2.09 1.116 7.056 3.805 11.036 5.977 3.98 2.171 8.21 4.454 9.4 5.072l2.164 1.125 9.4-5.699c5.17-3.134 9.94-6.008 10.6-6.386.66-.378 4.44-2.632 8.4-5.008 3.96-2.377 7.563-4.517 8.006-4.756.443-.239 1.371-.84 2.061-1.335.691-.495 1.426-.9 1.633-.9.665 0 1.95-1.699 1.425-1.884-.262-.091-1.939-1.055-3.727-2.141-1.788-1.086-3.307-1.975-3.374-1.975-.067 0-2.8-1.548-6.073-3.439a980.029 980.029 0 0 0-7.751-4.445c-.99-.553-5.04-2.854-9-5.113-10.227-5.833-10.174-5.804-10.712-5.79-.268.007-.938.345-1.488.752m3.722.842c1.827.879 2.647 1.358 4.478 2.615.66.453 1.83 1.137 2.6 1.52.77.382 2.3 1.229 3.4 1.881 1.1.651 2.72 1.546 3.6 1.988.88.442 1.956 1.025 2.39 1.296 3.112 1.941 5.053 3.093 5.211 3.093.102 0 1.313.684 2.692 1.52 1.379.836 3.137 1.831 3.907 2.211.77.38 1.756.911 2.19 1.18 3.748 2.319 5.058 3.089 5.255 3.089.126 0 .66.339 1.188.754 1.067.84.985.96-1.533 2.256-.825.425-1.5.911-1.5 1.081 0 .17-.183.309-.407.309-.224 0-1.858.9-3.632 2-1.773 1.1-3.294 2-3.378 2-.085 0-1.555.855-3.267 1.9a397.653 397.653 0 0 1-3.799 2.3c-.378.22-2.342 1.39-4.363 2.6a543.911 543.911 0 0 1-4.716 2.8c-.573.33-1.581.96-2.241 1.4-2.266 1.51-2.798 1.824-3.497 2.058-.385.13-.7.394-.7.589 0 .194-.201.353-.446.353s-1.745.81-3.333 1.8c-3.645 2.272-2.523 2.475-10.621-1.928-1.43-.778-3.95-2.121-5.6-2.986-4.4-2.307-5.776-3.061-6-3.292-.11-.113-1.28-.769-2.6-1.457a381.29 381.29 0 0 1-5.4-2.894c-1.65-.903-3.81-2.047-4.8-2.542-.99-.495-1.89-.992-2-1.104-.11-.112-1.19-.73-2.4-1.373-1.21-.644-2.714-1.48-3.342-1.858l-1.141-.688 2.326-1.488c2.085-1.334 8.281-5.117 10.357-6.325.44-.256.89-.557 1-.669.11-.112.875-.558 1.7-.991.825-.433 1.5-.926 1.5-1.096 0-.17.189-.309.419-.309.231 0 1.446-.667 2.7-1.483 1.255-.815 2.911-1.827 3.681-2.249a30.96 30.96 0 0 0 2.462-1.518c.584-.412 1.181-.75 1.326-.75.146 0 .855-.45 1.576-1 .722-.55 1.442-1 1.6-1 .159 0 .862-.405 1.563-.901 1.696-1.2 2.707-1.825 3.673-2.268.44-.202 1.79-1.007 3-1.789 2.584-1.669 2.731-1.688 4.922-.635m54.144 34.793c-2.143 1.32-4.011 2.4-4.15 2.4-.139 0-.537.252-.885.559-.347.308-1.261.911-2.031 1.339-1.942 1.082-17.861 10.555-22 13.092-1.87 1.147-4.3 2.592-5.4 3.213-1.861 1.049-2.579 1.665-2.594 2.226-.005.207 4.529 2.882 9.794 5.778 1.1.605 2.18 1.229 2.4 1.386.22.157 1.75 1.01 3.4 1.895 3.676 1.972 4.695 2.545 11.242 6.321 2.852 1.645 5.243 2.991 5.314 2.991.071 0 1.649.875 3.507 1.944a531.241 531.241 0 0 0 9.937 5.575c.99.544 2.025 1.166 2.3 1.384.393.311.5 8.099.5 36.529v36.134l-1.7.968c-.935.532-2.87 1.598-4.3 2.369a514.945 514.945 0 0 0-7.939 4.378c-.736.412-2.896 1.584-4.8 2.604s-4.324 2.364-5.379 2.985c-1.054.622-1.992 1.13-2.084 1.13-.092 0-2.257 1.17-4.813 2.6-2.556 1.43-4.726 2.6-4.824 2.6-.097 0-.848.419-1.669.93-.821.512-2.842 1.659-4.492 2.549-1.65.89-3.669 1.995-4.488 2.456-.818.461-2.708 1.502-4.2 2.314a646.294 646.294 0 0 0-5.712 3.158c-6.48 3.631-9.481 5.014-10.246 4.722-.415-.158-1.958-.969-3.43-1.802-4.97-2.811-5.717-3.226-8.724-4.839-1.65-.885-3.18-1.738-3.4-1.895-.22-.158-1.48-.88-2.8-1.605-2.611-1.434-3.662-2.021-8.2-4.574a562.065 562.065 0 0 0-5.712-3.165c-3.204-1.744-4.245-2.326-10.185-5.697-2.474-1.404-4.563-2.552-4.643-2.552-.08 0-1.746-.927-3.703-2.061a336.411 336.411 0 0 0-6.064-3.427 540.51 540.51 0 0 1-4.8-2.657L135 236.566l-.2-28.168-.2-28.167-2.8-1.454c-3.938-2.044-35.219-17.945-37.4-19.011-.99-.484-1.935-.799-2.1-.7-.165.1-.3 23.196-.3 51.325v51.144l1.3.793c.715.436 1.93 1.146 2.7 1.577.77.432 2.93 1.674 4.8 2.761 7.897 4.59 17.09 9.909 18.274 10.575a81.12 81.12 0 0 1 2.892 1.738c.89.561 1.714 1.021 1.83 1.021.117 0 1.649.9 3.404 2s3.26 2 3.344 2c.084 0 2.201 1.194 4.704 2.654 6.866 4.004 7.154 4.17 9.952 5.736 1.43.801 3.361 1.941 4.292 2.533.931.592 1.769 1.077 1.862 1.077.093 0 2.904 1.62 6.246 3.6 3.342 1.98 6.146 3.6 6.23 3.6.085 0 1.139.63 2.343 1.4 1.204.77 2.265 1.4 2.358 1.4.092 0 3.994 2.25 8.669 5 4.675 2.75 8.577 5 8.669 5 .093 0 1.106.596 2.25 1.324 1.145.729 2.351 1.451 2.681 1.606.33.154 1.5.824 2.6 1.488 5.188 3.134 2.265 4.064 22-7.002 6.6-3.701 12.99-7.266 14.2-7.922 1.21-.655 2.56-1.412 3-1.681.44-.269 1.88-1.086 3.2-1.816l3.8-2.102c.77-.426 1.94-1.092 2.6-1.481.66-.389 2.19-1.243 3.4-1.896 1.21-.654 5.08-2.814 8.6-4.8 3.52-1.986 7.84-4.382 9.6-5.325 1.76-.943 3.387-1.857 3.615-2.032.376-.288 14.003-7.926 19.385-10.866 1.21-.661 2.74-1.52 3.4-1.909.66-.389 1.83-1.055 2.6-1.481 6.979-3.86 8.471-4.697 12.1-6.788l3.1-1.787V138.46l-2.1-1.166a374.558 374.558 0 0 1-4.7-2.669c-1.43-.827-3.59-2.056-4.8-2.731a841.788 841.788 0 0 1-7.272-4.151 1143.681 1143.681 0 0 0-6.4-3.672l-7.928-4.458c-3.63-2.041-6.78-3.845-7-4.009-.22-.164-1.48-.891-2.8-1.616-1.32-.725-2.99-1.649-3.712-2.053-2.002-1.121-2.809-.93-7.022 1.665m6.015-1.508c.616.27 1.209.585 1.319.7.21.218 1.652 1.017 4.992 2.765 1.096.574 2.205 1.239 2.464 1.478.26.24 1.433.925 2.608 1.522 1.175.598 2.676 1.407 3.336 1.799a242.159 242.159 0 0 0 7.4 4.161c1.21.652 2.65 1.493 3.2 1.869.55.376 1.27.809 1.6.961.33.153 1.5.8 2.6 1.44 1.1.639 2.63 1.481 3.4 1.872s1.638.942 1.929 1.226c.29.283.785.515 1.1.515.314 0 .571.141.571.312 0 .172.495.523 1.1.78 1.059.45 2.666 1.357 6.5 3.673.99.598 2.115 1.205 2.5 1.349 1.089.406 1.089 122.568 0 122.969-.385.142-1.33.648-2.1 1.124-1.493.924-4.112 2.414-6.4 3.642-.77.413-1.49.841-1.6.951-.11.11-.83.538-1.6.951-1.713.92-4.586 2.537-6.2 3.491a94.8 94.8 0 0 1-3 1.664c-5.653 3.002-9.117 4.9-10 5.478-.55.36-1.45.867-2 1.127-.55.259-1.72.916-2.6 1.459-1.809 1.118-2.399 1.449-6.6 3.712-1.65.889-3.63 1.993-4.4 2.454-.77.461-2.12 1.207-3 1.658-1.714.879-3.076 1.682-3.4 2.006-.11.11-.92.559-1.8.998-.88.439-2.68 1.401-4 2.139a1317.848 1317.848 0 0 1-7.6 4.226c-.44.241-.89.531-1 .647-.11.115-1.1.669-2.2 1.23-1.1.562-3.08 1.621-4.4 2.354a746.99 746.99 0 0 1-3.2 1.769c-.44.241-.89.527-1 .637-.11.11-.92.557-1.8.994-1.382.686-3.125 1.688-6.41 3.687-.434.264-1.6.909-2.59 1.432-1.953 1.033-4.188 2.276-7.125 3.965a98.038 98.038 0 0 1-3.475 1.896c-.88.45-2.5 1.353-3.6 2.007-4.427 2.632-7.8 3.53-7.8 2.077 0-.153-.808-.634-1.796-1.068-.988-.435-1.798-.904-1.8-1.043-.002-.14-.319-.362-.704-.494-.385-.132-1.42-.702-2.3-1.267-.88-.564-2.095-1.237-2.7-1.494-.605-.257-1.1-.608-1.1-.78 0-.171-.168-.312-.374-.312-.205 0-2.32-1.17-4.7-2.599-2.379-1.43-4.551-2.6-4.826-2.6-.275-.001-.5-.16-.5-.354 0-.195-.315-.466-.7-.603-.385-.138-1.6-.783-2.7-1.435-1.1-.651-2.27-1.312-2.6-1.468-.33-.155-.69-.386-.8-.512-.291-.334-1.599-1.108-3.2-1.895a23.089 23.089 0 0 1-2.6-1.534c-.66-.465-1.92-1.195-2.8-1.623-.88-.427-1.69-.876-1.8-.997-.11-.122-1.28-.824-2.6-1.562-4.356-2.434-4.934-2.766-6.474-3.726-.839-.523-1.796-1.071-2.126-1.219a13.42 13.42 0 0 1-1.39-.77c-2.378-1.513-5.049-3.103-5.211-3.103-.102 0-1.313-.678-2.692-1.506-1.379-.828-3.047-1.773-3.707-2.099-.66-.327-1.344-.819-1.52-1.094-.176-.276-.671-.501-1.1-.501-.429 0-.78-.18-.78-.4 0-.22-.177-.4-.393-.4-.216 0-1.569-.72-3.007-1.6-1.438-.88-2.687-1.6-2.775-1.6-.089 0-1.571-.859-3.293-1.909-1.723-1.051-3.672-2.176-4.332-2.5-.66-.325-1.438-.816-1.729-1.091-.29-.275-.785-.5-1.1-.5-.314 0-.571-.159-.571-.353 0-.195-.315-.455-.7-.579-.385-.124-1.6-.773-2.7-1.441-1.1-.669-2.27-1.339-2.6-1.49-.33-.15-1.548-.872-2.708-1.605-1.159-.733-2.262-1.332-2.451-1.332-.189 0-.567-.27-.841-.6-.274-.33-.753-.6-1.066-.6-.312 0-.961-.367-1.443-.815-.481-.449-1.284-.919-1.783-1.044-.499-.125-.908-.388-.908-.584 0-.197-.248-.357-.551-.357-.303 0-.775-.27-1.049-.6-.274-.33-.836-.6-1.249-.6-.731 0-.751-1.375-.751-50.965v-50.966l1.3.463c.715.254 1.84.763 2.5 1.131.66.369 3.27 1.695 5.8 2.947s5.05 2.526 5.6 2.832c.55.306 3.25 1.678 6 3.049s5.09 2.586 5.2 2.701c.425.441 2.891 1.608 3.399 1.608.294 0 .594.135.668.3.073.165 1.213.816 2.533 1.446 1.32.63 2.67 1.297 3 1.484.33.186 1.725.926 3.1 1.645l2.5 1.306v55.68l.9.812c.495.447 1.44 1.075 2.1 1.395.66.321 2.19 1.134 3.4 1.808 1.21.673 3.1 1.71 4.2 2.303s2.9 1.608 4 2.254c1.1.646 2.72 1.54 3.6 1.986.88.446 2.5 1.346 3.6 2a74.17 74.17 0 0 0 3.6 1.998 54.21 54.21 0 0 1 2.8 1.529c2.894 1.738 5.746 3.342 7.6 4.275 1.1.554 2.54 1.338 3.2 1.743 3.045 1.867 7.014 4.036 7.388 4.036.226 0 .413.135.415.3.002.165.407.493.9.73 1.672.801 6.096 3.169 6.297 3.37.11.11.92.558 1.8.996.88.438 1.69.888 1.8 1 .225.229.651.471 4.929 2.791 2.323 1.26 3.2 1.554 3.751 1.258.396-.213.99-.484 1.32-.603.33-.119 1.5-.75 2.6-1.402 1.1-.653 2.81-1.613 3.8-2.135.99-.521 2.79-1.502 4-2.18a517.125 517.125 0 0 1 8.8-4.783c.77-.408 1.49-.832 1.6-.942.11-.11.92-.555 1.8-.989.88-.433 2.23-1.167 3-1.63.77-.463 2.75-1.57 4.4-2.46 1.65-.89 3.72-2.025 4.6-2.521.88-.497 2.86-1.577 4.4-2.401 1.54-.823 3.683-1.991 4.762-2.595 1.079-.605 3.059-1.68 4.4-2.391 4.141-2.194 5.23-2.804 5.438-3.048.11-.129 1.37-.817 2.8-1.529 2.751-1.37 2.975-1.496 6.29-3.531l2.11-1.295v-35.972c0-39.993.19-36.895-2.34-38.129-1.023-.5-1.95-1-2.06-1.112-.11-.113-.92-.563-1.8-1.001-.88-.438-2.5-1.339-3.6-2.002-1.1-.663-2.72-1.563-3.6-2-.88-.437-1.69-.908-1.8-1.047-.11-.139-1.409-.893-2.886-1.675a141.25 141.25 0 0 1-4.596-2.547c-1.973-1.162-3.952-2.255-6.718-3.709a60.831 60.831 0 0 1-3.2-1.836 54.24 54.24 0 0 0-3.6-1.995c-1.1-.551-2.356-1.222-2.79-1.493-2.462-1.533-5.003-3-6.404-3.698-3.413-1.7-2.909-3.335 1.494-4.847.385-.132.7-.399.7-.594 0-.194.257-.353.571-.353.315 0 .81-.232 1.1-.515.291-.284 1.159-.828 1.929-1.211.77-.383 1.67-.868 2-1.079 1.831-1.167 8.289-5.08 8.8-5.331.33-.163.963-.513 1.406-.78.444-.266 3.054-1.827 5.8-3.467 2.747-1.641 5.054-3.126 5.127-3.3.074-.175.319-.317.546-.317.227 0 1.78-.855 3.452-1.9 5.202-3.251 4.789-3.094 6.35-2.408" fill="#b5dcf1"/></g></svg>